<svg width="44" height="44" viewBox="0 0 44 44" fill="none" xmlns="http://www.w3.org/2000/svg">
<path d="M15 11C8.18182 11 2.31818 15.0538 0 20.8077C2.31818 26.5615 8.18182 30.6154 15 30.6154C21.8182 30.6154 27.6818 26.5615 30 20.8077C27.6818 15.0538 21.8182 11 15 11ZM15 27.3462C11.1818 27.3462 8.18182 24.4692 8.18182 20.8077C8.18182 17.1462 11.1818 14.2692 15 14.2692C18.8182 14.2692 21.8182 17.1462 21.8182 20.8077C21.8182 24.4692 18.8182 27.3462 15 27.3462ZM15 16.8846C12.6818 16.8846 10.9091 18.5846 10.9091 20.8077C10.9091 23.0308 12.6818 24.7308 15 24.7308C17.3182 24.7308 19.0909 23.0308 19.0909 20.8077C19.0909 18.5846 17.3182 16.8846 15 16.8846Z" fill="#AAB046"/>
</svg>
