<svg width="24" height="24" viewBox="0 0 24 24" fill="none" xmlns="http://www.w3.org/2000/svg">
<path d="M11.1586 1.30996C11.5522 0.697195 12.4478 0.697195 12.8414 1.30996L16.2213 6.57218C16.3568 6.78302 16.5664 6.93533 16.8088 6.99897L22.8579 8.58737C23.5623 8.77233 23.839 9.62412 23.3779 10.1878L19.4177 15.0284C19.259 15.2224 19.1789 15.4688 19.1933 15.719L19.5519 21.9629C19.5937 22.69 18.8691 23.2164 18.1905 22.952L12.363 20.6815C12.1296 20.5905 11.8704 20.5905 11.637 20.6815L5.80946 22.952C5.13088 23.2164 4.40631 22.69 4.44807 21.9629L4.80669 15.719C4.82106 15.4688 4.74099 15.2224 4.58232 15.0284L0.622105 10.1878C0.160956 9.62412 0.437719 8.77233 1.14211 8.58737L7.19125 6.99897C7.43361 6.93533 7.64325 6.78302 7.77867 6.57218L11.1586 1.30996Z" fill="#E2E2E2"/>
</svg>
