<svg width="44" height="44" viewBox="0 0 44 44" fill="none" xmlns="http://www.w3.org/2000/svg">
<circle cx="22" cy="22" r="21.85" fill="#F4F4F4" stroke="url(#paint0_linear)" stroke-width="0.3"/>
<g clip-path="url(#clip0)">
<path d="M29.8778 22.9994C29.51 22.523 29.6152 22.3111 29.8778 21.8853C29.8825 21.8804 32.9187 17.5773 33.2315 16.118L33.2334 16.1171C33.3888 15.5853 33.2334 15.1944 32.4817 15.1944H29.9944C29.3611 15.1944 29.0692 15.5298 28.9128 15.9051C28.9128 15.9051 27.6464 19.0143 25.8548 21.0297C25.2766 21.6121 25.0093 21.7987 24.6936 21.7987C24.5381 21.7987 24.2964 21.6121 24.2964 21.0803V16.1171C24.2964 15.4793 24.1192 15.1944 23.595 15.1944H19.6839C19.2867 15.1944 19.0507 15.4919 19.0507 15.769C19.0507 16.3737 19.9464 16.5128 20.0393 18.2141V21.9057C20.0393 22.7146 19.8962 22.8633 19.5786 22.8633C18.7331 22.8633 16.6809 19.7415 15.4647 16.1686C15.2192 15.4754 14.9794 15.1954 14.3414 15.1954H11.8531C11.1431 15.1954 11 15.5308 11 15.9061C11 16.5691 11.8455 19.866 14.932 24.2215C16.9889 27.1946 19.8858 28.8055 22.521 28.8055C24.1049 28.8055 24.2983 28.4478 24.2983 27.8323C24.2983 24.9915 24.1552 24.7232 24.9486 24.7232C25.3164 24.7232 25.9496 24.9098 27.4283 26.3439C29.1185 28.0443 29.3962 28.8055 30.3422 28.8055H32.8296C33.5386 28.8055 33.8979 28.4478 33.6912 27.7419C33.2182 26.2573 30.0218 23.2036 29.8778 22.9994Z" fill="#AAB046"/>
</g>
<defs>
<linearGradient id="paint0_linear" x1="14.891" y1="-5.2758e-07" x2="40.7165" y2="22.7977" gradientUnits="userSpaceOnUse">
<stop stop-color="#F0F0F0"/>
<stop offset="1" stop-color="#E9E9E9"/>
</linearGradient>
<clipPath id="clip0">
<rect width="22.75" height="14" fill="white" transform="translate(11 15)"/>
</clipPath>
</defs>
</svg>
