<svg width="15" height="8" viewBox="0 0 15 8" fill="none" xmlns="http://www.w3.org/2000/svg">
<g clip-path="url(#clip0)">
<path d="M0.171862 4.4566C0.172038 4.4568 0.172184 4.45702 0.172389 4.45722L3.23403 7.81205C3.46339 8.06338 3.83438 8.06244 4.06269 7.80986C4.29097 7.55731 4.29009 7.14883 4.06073 6.89747L2.00514 4.64509L14.4141 4.64509C14.7377 4.64509 15 4.35625 15 3.99993C15 3.6436 14.7377 3.35477 14.4141 3.35477L2.00517 3.35476L4.0607 1.10238C4.29006 0.851023 4.29094 0.442539 4.06266 0.189991C3.83435 -0.0626221 3.46334 -0.0634928 3.234 0.187797L0.172361 3.54264C0.172184 3.54283 0.172038 3.54305 0.171832 3.54325C-0.0576492 3.79544 -0.0569169 4.20525 0.171862 4.4566Z" fill="#777"/>
</g>
<defs>
<clipPath id="clip0">
<rect width="15" height="8" fill="white" transform="translate(15 8) rotate(-180)"/>
</clipPath>
</defs>
</svg>