<svg width="23" height="23" viewBox="0 0 23 23" fill="none" xmlns="http://www.w3.org/2000/svg">
<path d="M22.6829 21.6813L22.6829 21.6813L16.0015 15L15.8423 14.8408L15.984 14.6658C17.2168 13.1438 17.9584 11.2099 17.9584 9.1042C17.9584 4.22224 13.9861 0.25 9.10416 0.25C4.2222 0.25 0.25 4.22224 0.25 9.1042C0.25 13.9862 4.22224 17.9584 9.1042 17.9584C11.2099 17.9584 13.1438 17.2168 14.6658 15.9841L14.8408 15.8424L15 16.0016L21.6812 22.6829C21.6813 22.6829 21.6813 22.6829 21.6813 22.6829C21.7708 22.7724 21.9159 22.7724 22.0054 22.6829L22.0055 22.6829M22.6829 21.6813L22.1822 22.8597L22.0055 22.6829M22.6829 21.6813C22.7723 21.7708 22.7724 21.9159 22.6829 22.0054L22.6829 21.6813ZM22.0055 22.6829L22.6829 22.0054L22.0055 22.6829ZM1.66669 9.1042C1.66669 13.2057 5.00271 16.5417 9.1042 16.5417C13.2057 16.5417 16.5417 13.2057 16.5417 9.1042C16.5417 5.00271 13.2057 1.66669 9.1042 1.66669C5.00271 1.66669 1.66669 5.00271 1.66669 9.1042Z" fill="#999999" stroke="#F4F4F4" stroke-width="0.5"/>
</svg>
