<svg width="29" height="25" viewBox="0 0 29 25" fill="none" xmlns="http://www.w3.org/2000/svg">
<path d="M26.1525 3.28806L26.1542 3.28974C28.4218 5.49338 28.5833 8.97444 27.7108 11.4736C26.8646 13.7802 25.1762 15.8699 23.1161 17.7858C21.0567 19.701 18.6826 21.392 16.5176 22.927L16.5163 22.928C16.2737 23.1007 16.0517 23.2629 15.8375 23.4194C15.5515 23.6283 15.2795 23.827 14.9911 24.027L14.9307 24.0689L14.908 24.0918L14.899 24.0963L14.8249 24.1337L14.7216 24.1684L14.6914 24.1786L14.629 24.1996C14.6276 24.1996 14.6261 24.1996 14.6245 24.1997L14.6019 24.1999L14.5709 24.2H14.5707H14.5705H14.5703H14.5702H14.57H14.5698H14.5696H14.5694H14.5693H14.5691H14.5689H14.5687H14.5686H14.5684H14.5682H14.568H14.5679H14.5677H14.5675H14.5674H14.5672H14.567H14.5669H14.5667H14.5665H14.5664H14.5662H14.566H14.5659H14.5657H14.5655H14.5654H14.5652H14.5651H14.5649H14.5647H14.5646H14.5644H14.5643H14.5641H14.5639H14.5638H14.5636H14.5635H14.5633H14.5632H14.563H14.5629H14.5627H14.5626H14.5624H14.5623H14.5621H14.562H14.5618H14.5617H14.5616H14.5614H14.5613H14.5611H14.561H14.5608H14.5607H14.5606H14.5604H14.5603H14.5601H14.56H14.5599H14.5597H14.5596H14.5594H14.5593H14.5592H14.559H14.5589H14.5588H14.5586H14.5585H14.5584H14.5583H14.5581H14.558H14.5579H14.5577H14.5576H14.5575H14.5574H14.5572H14.5571H14.557H14.5569H14.5567H14.5566H14.5565H14.5564H14.5563H14.5561H14.556H14.5559H14.5558H14.5557H14.5555H14.5554H14.5553H14.5552H14.5551H14.555H14.5548H14.5547H14.5546H14.5545H14.5544H14.5543H14.5542H14.5541H14.554H14.5538H14.5537H14.5536H14.5535H14.5534H14.5533H14.5532H14.5531H14.553H14.5529H14.5528H14.5527H14.5526H14.5525H14.5524H14.5523H14.5522H14.5521H14.552H14.5519H14.5518H14.5517H14.5516H14.5515H14.5514H14.5513H14.5512H14.5511H14.551H14.5509H14.5508H14.5507H14.5506H14.5506H14.5505H14.5504H14.5503H14.5502H14.5501H14.55H14.5499H14.5498H14.5498H14.5497H14.5496H14.5495H14.5494H14.5493H14.5492H14.5492H14.5491H14.549H14.5489H14.5488H14.5488H14.5487H14.5486H14.5485H14.5484H14.5484H14.5483H14.5482H14.5481H14.548H14.548H14.5479H14.5478H14.5477H14.5477H14.5476H14.5475H14.5474H14.5474H14.5473H14.5472H14.5472H14.5471H14.547H14.5469H14.5469H14.5468H14.5467H14.5467H14.5466H14.5465H14.5465H14.5464H14.5463H14.5463H14.5462H14.5461H14.5461H14.546H14.5459H14.5459H14.5458H14.5458H14.5457H14.5456H14.5456H14.5455H14.5455H14.5454H14.5453H14.5453H14.5452H14.5452H14.5451H14.545H14.545H14.5449H14.5449H14.5448H14.5448H14.5447H14.5447H14.5446H14.5445H14.5445H14.5444H14.5444H14.5443H14.5443H14.5442H14.5442H14.5441H14.5441H14.544H14.544H14.5439H14.5439H14.5438H14.5438H14.5437H14.5437H14.5436H14.5436H14.5435H14.5435H14.5435H14.5434H14.5434H14.5433H14.5433H14.5432H14.5432H14.5431H14.5431H14.5431H14.543H14.543H14.5429H14.5429H14.5429H14.5428H14.5428H14.5427H14.5427H14.5427H14.5426H14.5426H14.5425H14.5425H14.5425H14.5424H14.5424H14.5424H14.5423H14.5423H14.5422H14.5422H14.5422H14.5421H14.5421H14.5421H14.542H14.542H14.542H14.5419H14.5419H14.5419H14.5418H14.5418H14.5418H14.5417H14.5417H14.5417H14.5417H14.5416H14.5416H14.5416H14.5415H14.5415H14.5415H14.5415H14.5414H14.5414H14.5414H14.5413H14.5413H14.5413H14.5413H14.5412H14.5412H14.5412H14.5412H14.5411H14.5411H14.5411H14.5411H14.541H14.541H14.541H14.541H14.5409H14.5409H14.5409H14.5409H14.5409H14.5408H14.5408H14.5408H14.5408H14.5408H14.5407H14.5407H14.5407H14.5407H14.5407H14.5406H14.5406H14.5406H14.5406H14.5406H14.5405H14.5405H14.5405H14.5405H14.5405H14.5405H14.5404H14.5404H14.5404H14.5404H14.5404H14.5404H14.5403H14.5403H14.5403H14.5403H14.5403H14.5403H14.5403H14.5402H14.5402H14.5402H14.5402H14.5401H14.5401H14.5401H14.5401H14.54H14.54H14.54H14.54H14.54H14.5399H14.5399H14.5399H14.5399H14.5399H14.5399H14.5398H14.5398H14.5398H14.5398H14.5398H14.5398H14.5397H14.5397H14.5397H14.5397H14.5397H14.5397H14.5397H14.5396H14.5396H14.5396H14.5396C14.5152 24.2 14.4971 24.2 14.4792 24.1996C14.4658 24.1994 14.4553 24.199 14.4471 24.1985L14.3576 24.1684H14.2977C14.2628 24.1559 14.2342 24.1448 14.2077 24.1332C14.1607 24.1126 14.1415 24.099 14.1346 24.0934L14.1119 24.0751L14.088 24.0585C13.5869 23.711 13.0902 23.3665 12.5629 22.9911L12.5616 22.9902C10.3957 21.4544 8.01385 19.7635 5.94637 17.8479C3.87662 15.9302 2.18044 13.8392 1.33523 11.5317C0.402329 8.97266 0.564008 5.49015 2.80253 3.28708C4.73969 1.3926 6.70716 0.636595 8.73471 0.82924C10.9331 1.05477 12.7706 2.4467 13.9089 3.59489L14.477 4.16798L15.0451 3.59489C16.1857 2.44442 17.9914 1.05475 20.2188 0.829289C22.2449 0.63665 24.2443 1.4225 26.1525 3.28806ZM14.8456 24.1684C14.8597 24.1679 14.8636 24.1684 14.8525 24.1684H14.8456Z" stroke="#B1BF0E" stroke-width="1.6"/>
</svg>
