<svg width="13" height="14" viewBox="0 0 13 14" fill="none" xmlns="http://www.w3.org/2000/svg">
<path d="M7.99367 7.66075C7.60314 7.27023 7.60315 6.63707 7.99367 6.24654L12.2689 1.97131C12.5186 1.72162 12.5186 1.31681 12.2689 1.06715C12.0192 0.817461 11.6144 0.817461 11.3647 1.06715L7.08946 5.34238C6.69894 5.73291 6.06578 5.7329 5.67525 5.34238L1.40002 1.06715C1.15033 0.817461 0.745525 0.817461 0.49586 1.06715C0.246195 1.31684 0.246172 1.72164 0.49586 1.97131L4.77109 6.24654C5.16161 6.63706 5.16161 7.27023 4.77109 7.66075L0.49586 11.936C0.246172 12.1857 0.246172 12.5905 0.49586 12.8401C0.745549 13.0898 1.15036 13.0898 1.40002 12.8401L5.67525 8.56492C6.06577 8.17439 6.69894 8.17439 7.08946 8.56492L11.3647 12.8401C11.6144 13.0898 12.0192 13.0898 12.2689 12.8401C12.5185 12.5905 12.5185 12.1856 12.2689 11.936L7.99367 7.66075Z" fill="#272727"/>
</svg>
