<svg width="28" height="28" viewBox="0 0 28 28" fill="none" xmlns="http://www.w3.org/2000/svg">
<path d="M24.6934 8.6957H19.2355V3.23782C19.2355 2.1427 18.2928 1.2 17.1977 1.2H10.6648C9.56963 1.2 8.62693 2.1427 8.62693 3.23782V8.6957H3.23782C2.1427 8.6957 1.2 9.6384 1.2 10.7335V17.2665C1.2 18.3616 2.1427 19.3043 3.23782 19.3043H8.6957V24.7622C8.6957 25.8573 9.6384 26.8 10.7335 26.8H17.2665C18.3616 26.8 19.3043 25.8573 19.3043 24.7622V19.2699H24.7622C25.8573 19.2699 26.8 18.3272 26.8 17.2321V10.6991V10.6329L26.7891 10.5676C26.6369 9.65405 25.8234 8.6957 24.6934 8.6957Z" stroke="#B1BF0E" stroke-width="1.6"/>
</svg>
