<svg width="30" height="28" viewBox="0 0 30 28" fill="none" xmlns="http://www.w3.org/2000/svg">
<path d="M10.6122 8.77978L11.3546 9.0779L10.6122 8.77978C10.5836 8.85102 10.5167 8.8996 10.4401 8.90479L3.16454 9.39812C1.54575 9.50788 0.887094 11.535 2.13221 12.5753L7.72831 17.2509C7.78723 17.3001 7.81276 17.3787 7.79403 17.4532L6.01493 24.5251C5.61909 26.0986 7.34347 27.3514 8.71762 26.4887L14.8937 22.6114C14.9587 22.5705 15.0413 22.5705 15.1063 22.6114L21.2824 26.4887C22.6565 27.3514 24.3809 26.0986 23.9851 24.5251L22.206 17.4532C22.1872 17.3787 22.2128 17.3001 22.2717 17.2509L27.8678 12.5753C29.1129 11.535 28.4543 9.50788 26.8355 9.39812L19.5599 8.90479C19.4833 8.8996 19.4164 8.85102 19.3878 8.77978L16.6704 2.01273C16.0657 0.507086 13.9343 0.507088 13.3296 2.01273L10.6122 8.77978Z" stroke="#B1BF0E" stroke-width="1.6"/>
</svg>
