<svg width="19" height="20" viewBox="0 0 19 20" fill="none" xmlns="http://www.w3.org/2000/svg">
<path d="M11.3636 10.9241C10.9731 10.5336 10.9731 9.90044 11.3636 9.50992L18.2653 2.60819C18.6466 2.22688 18.6466 1.60867 18.2653 1.22739C17.884 0.846078 17.2658 0.846078 16.8845 1.22739L9.98273 8.12912C9.5922 8.51964 8.95904 8.51964 8.56851 8.12912L1.66679 1.22739C1.28547 0.846078 0.667265 0.846078 0.285986 1.22739C-0.0952925 1.60871 -0.0953287 2.22691 0.285986 2.60819L7.18771 9.50992C7.57824 9.90044 7.57824 10.5336 7.18771 10.9241L0.285986 17.8259C-0.0953287 18.2072 -0.0953287 18.8254 0.285986 19.2067C0.667301 19.588 1.28551 19.5879 1.66679 19.2067L8.56851 12.3049C8.95903 11.9144 9.5922 11.9144 9.98272 12.3049L16.8844 19.2067C17.2657 19.588 17.884 19.5879 18.2652 19.2067C18.6465 18.8253 18.6465 18.2071 18.2652 17.8259L11.3636 10.9241Z" fill="#272727"/>
</svg>
