<svg width="134" height="136" viewBox="0 0 134 136" fill="none" xmlns="http://www.w3.org/2000/svg">
<g filter="url(#filter0_dd)">
<ellipse cx="60.7315" cy="61.5" rx="40.7315" ry="41.5" fill="url(#paint0_linear)"/>
</g>
<rect x="25.6588" y="26.7152" width="69.793" height="69.793" rx="34.8965" fill="url(#paint1_linear)" stroke="white" stroke-width="1.10667"/>
<rect x="28.4255" y="29.4819" width="64.2597" height="64.2597" rx="32.1298" fill="#B1BF0E" stroke="url(#paint2_linear)" stroke-width="4.42667"/>
<path d="M57.4334 66.1668V48.9668H63.8334V66.1668H57.4334ZM56.7134 73.1268C56.7134 72.1668 57.0867 71.3001 57.8334 70.5268C58.5801 69.7535 59.5667 69.3668 60.7934 69.3668C61.8601 69.3668 62.7534 69.7535 63.4734 70.5268C64.1934 71.3001 64.5534 72.1668 64.5534 73.1268C64.5534 74.2201 64.1934 75.1801 63.4734 76.0068C62.7801 76.8068 61.8867 77.2068 60.7934 77.2068C59.5667 77.2068 58.5801 76.8068 57.8334 76.0068C57.0867 75.2068 56.7134 74.2468 56.7134 73.1268Z" fill="white"/>
<path d="M57.4334 66.1668H56.3267V67.2735H57.4334V66.1668ZM57.4334 48.9668V47.8601H56.3267V48.9668H57.4334ZM63.8334 48.9668H64.9401V47.8601H63.8334V48.9668ZM63.8334 66.1668V67.2735H64.9401V66.1668H63.8334ZM57.8334 70.5268L57.0373 69.7581L57.0373 69.7581L57.8334 70.5268ZM63.4734 70.5268L62.6634 71.2809L63.4734 70.5268ZM63.4734 76.0068L62.6389 75.28L62.6371 75.282L63.4734 76.0068ZM57.8334 76.0068L57.0244 76.7619L57.8334 76.0068ZM58.5401 66.1668V48.9668H56.3267V66.1668H58.5401ZM57.4334 50.0735H63.8334V47.8601H57.4334V50.0735ZM62.7267 48.9668V66.1668H64.9401V48.9668H62.7267ZM63.8334 65.0601H57.4334V67.2735H63.8334V65.0601ZM57.8201 73.1268C57.8201 72.4889 58.0561 71.8894 58.6295 71.2955L57.0373 69.7581C56.1173 70.7109 55.6067 71.8447 55.6067 73.1268H57.8201ZM58.6295 71.2955C59.1375 70.7693 59.8207 70.4735 60.7934 70.4735V68.2601C59.3128 68.2601 58.0226 68.7376 57.0373 69.7581L58.6295 71.2955ZM60.7934 70.4735C61.5562 70.4735 62.155 70.7348 62.6634 71.2809L64.2834 69.7727C63.3518 68.7721 62.164 68.2601 60.7934 68.2601V70.4735ZM62.6634 71.2809C63.2136 71.8718 63.4467 72.4758 63.4467 73.1268H65.6601C65.6601 71.8578 65.1732 70.7284 64.2834 69.7727L62.6634 71.2809ZM63.4467 73.1268C63.4467 73.9522 63.1839 74.6542 62.6389 75.28L64.3079 76.7336C65.2029 75.7061 65.6601 74.4881 65.6601 73.1268H63.4467ZM62.6371 75.282C62.1617 75.8305 61.5778 76.1001 60.7934 76.1001V78.3135C62.1957 78.3135 63.3984 77.7831 64.3097 76.7316L62.6371 75.282ZM60.7934 76.1001C59.8325 76.1001 59.1534 75.7991 58.6424 75.2517L57.0244 76.7619C58.0068 77.8145 59.301 78.3135 60.7934 78.3135V76.1001ZM58.6424 75.2517C58.092 74.6619 57.8201 73.9738 57.8201 73.1268H55.6067C55.6067 74.5198 56.0815 75.7517 57.0244 76.7619L58.6424 75.2517Z" fill="#949D11"/>
<defs>
<filter id="filter0_dd" x="0.0800018" y="0.0800018" width="133.476" height="135.013" filterUnits="userSpaceOnUse" color-interpolation-filters="sRGB">
<feFlood flood-opacity="0" result="BackgroundImageFix"/>
<feColorMatrix in="SourceAlpha" type="matrix" values="0 0 0 0 0 0 0 0 0 0 0 0 0 0 0 0 0 0 127 0"/>
<feOffset dx="9.96" dy="9.96"/>
<feGaussianBlur stdDeviation="11.0667"/>
<feColorMatrix type="matrix" values="0 0 0 0 0.873016 0 0 0 0 0.870833 0 0 0 0 0.916667 0 0 0 1 0"/>
<feBlend mode="normal" in2="BackgroundImageFix" result="effect1_dropShadow"/>
<feColorMatrix in="SourceAlpha" type="matrix" values="0 0 0 0 0 0 0 0 0 0 0 0 0 0 0 0 0 0 127 0"/>
<feOffset dx="-8.85333" dy="-8.85333"/>
<feGaussianBlur stdDeviation="5.53333"/>
<feColorMatrix type="matrix" values="0 0 0 0 1 0 0 0 0 1 0 0 0 0 1 0 0 0 1 0"/>
<feBlend mode="normal" in2="effect1_dropShadow" result="effect2_dropShadow"/>
<feBlend mode="normal" in="SourceGraphic" in2="effect2_dropShadow" result="shape"/>
</filter>
<linearGradient id="paint0_linear" x1="46.8981" y1="41.9028" x2="60.7315" y2="103" gradientUnits="userSpaceOnUse">
<stop stop-color="#E7E7E7"/>
<stop offset="1" stop-color="white"/>
</linearGradient>
<linearGradient id="paint1_linear" x1="60.5553" y1="27.2686" x2="60.5553" y2="95.9549" gradientUnits="userSpaceOnUse">
<stop stop-color="white"/>
<stop offset="1" stop-color="white" stop-opacity="0"/>
</linearGradient>
<linearGradient id="paint2_linear" x1="36.7793" y1="43.9998" x2="60.5553" y2="95.9549" gradientUnits="userSpaceOnUse">
<stop stop-color="#929C00"/>
<stop offset="1" stop-color="white" stop-opacity="0.42"/>
</linearGradient>
</defs>
</svg>
