<svg width="31" height="33" viewBox="0 0 31 33" fill="none" xmlns="http://www.w3.org/2000/svg">
<path d="M19.2236 13.4908C18.8568 13.8574 18.2626 13.8574 17.8959 13.4908L16.4388 12.0338V17.3874C16.4388 17.9059 16.0186 18.3261 15.5001 18.3261C14.9816 18.3261 14.5613 17.9059 14.5613 17.3874V12.0338L13.1037 13.4913C12.9204 13.6746 12.6801 13.7663 12.4399 13.7663C12.1997 13.7663 11.9595 13.6746 11.7761 13.4913C11.4095 13.1247 11.4095 12.5304 11.7761 12.1637L14.8363 9.10359C15.203 8.73695 15.7972 8.73695 16.164 9.10359L19.2236 12.1632C19.5902 12.5298 19.5902 13.1242 19.2236 13.4908Z" fill="white"/>
<path d="M0.936752 14.1745L14.8361 0.274976C15.2029 -0.0916588 15.7971 -0.0916588 16.1639 0.274976L30.0633 14.1745C30.2394 14.3505 30.3383 14.5893 30.3383 14.8383V32.0613C30.3383 32.5798 29.9181 33 29.3995 33H1.60055C1.08205 33 0.6618 32.5798 0.6618 32.0613V14.8383C0.6618 14.5893 0.760685 14.3504 0.936752 14.1745ZM28.4607 17.2229L21.0283 24.6553L28.4607 30.1915V17.2229ZM19.285 25.6979L11.7146 25.6982L4.43225 31.1224H26.5677L19.285 25.6979ZM9.97173 24.6553L2.53931 17.2229V30.1915L9.97173 24.6553ZM15.5 2.26639L2.86902 14.8974L11.7923 23.8208L19.208 23.8205L28.1311 14.8975L15.5 2.26639Z" fill="white"/>
</svg>
