<svg width="32" height="34" viewBox="0 0 32 34" fill="none" xmlns="http://www.w3.org/2000/svg">
<path d="M27.4833 23.2722C25.5502 21.6188 23.5884 20.6173 21.679 22.2682L20.5389 23.2659C19.7047 23.9902 18.1537 27.3744 12.1571 20.4762C6.16167 13.5866 9.72943 12.5139 10.5649 11.7959L11.7112 10.7969C13.6106 9.14223 12.8938 7.05926 11.5239 4.91511L10.6972 3.61638C9.32108 1.47722 7.82255 0.0723378 5.91816 1.72447L4.88916 2.6236C4.04748 3.23675 1.69478 5.2298 1.12409 9.0161C0.437259 13.5592 2.60389 18.7616 7.56779 24.4698C12.5255 30.1804 17.3795 33.0489 21.9775 32.9989C25.7987 32.9577 28.1065 30.9072 28.8283 30.1617L29.861 29.2613C31.7604 27.6104 30.5803 25.9296 28.646 24.2725L27.4833 23.2722Z" stroke="#272727" stroke-width="2"/>
</svg>
