<svg width="134" height="136" viewBox="0 0 134 136" fill="none" xmlns="http://www.w3.org/2000/svg">
<g filter="url(#filter0_dd)">
<ellipse cx="60.7315" cy="61.5" rx="40.7315" ry="41.5" fill="url(#paint0_linear)"/>
</g>
<rect x="25.6588" y="26.7152" width="69.793" height="69.793" rx="34.8965" fill="url(#paint1_linear)" stroke="white" stroke-width="1.10667"/>
<rect x="28.4255" y="29.4819" width="64.2597" height="64.2597" rx="32.1298" fill="#363636" stroke="url(#paint2_linear)" stroke-width="4.42667"/>
<path d="M62.9959 56.9668C62.9959 56.3268 62.7292 55.7535 62.1959 55.2468C61.6892 54.7401 61.0759 54.4868 60.3559 54.4868C59.3692 54.4868 58.5692 54.6601 57.9559 55.0068C57.3426 55.3268 56.7292 55.8735 56.1159 56.6468L52.5959 52.6068C53.3426 51.3801 54.4226 50.3935 55.8359 49.6468C57.2492 48.8735 58.8626 48.4868 60.6759 48.4868C63.3426 48.4868 65.4626 49.1801 67.0359 50.5668C68.6359 51.9268 69.4359 53.6201 69.4359 55.6468C69.4359 57.0868 69.1826 58.3668 68.6759 59.4868C68.1692 60.5801 67.5559 61.4601 66.8359 62.1268C66.1426 62.7668 65.4492 63.3668 64.7559 63.9268C64.0626 64.4601 63.4892 65.0468 63.0359 65.6868C62.6092 66.3001 62.4492 66.9668 62.5559 67.6868H57.1159C56.9559 66.4601 57.0359 65.3935 57.3559 64.4868C57.7026 63.5801 58.1826 62.8601 58.7959 62.3268C59.4092 61.7668 60.0226 61.2601 60.6359 60.8068C61.2759 60.3268 61.8226 59.7668 62.2759 59.1268C62.7559 58.4868 62.9959 57.7668 62.9959 56.9668ZM56.0759 73.1268C56.0759 72.1668 56.4492 71.3001 57.1959 70.5268C57.9426 69.7535 58.9292 69.3668 60.1559 69.3668C61.2226 69.3668 62.1159 69.7535 62.8359 70.5268C63.5559 71.3001 63.9159 72.1668 63.9159 73.1268C63.9159 74.2201 63.5559 75.1801 62.8359 76.0068C62.1426 76.8068 61.2492 77.2068 60.1559 77.2068C58.9292 77.2068 57.9426 76.8068 57.1959 76.0068C56.4492 75.2068 56.0759 74.2468 56.0759 73.1268Z" fill="white"/>
<path d="M62.1959 55.2468L61.4134 56.0293L61.4234 56.0394L61.4337 56.0491L62.1959 55.2468ZM57.9559 55.0068L58.4678 55.9879L58.4843 55.9794L58.5004 55.9702L57.9559 55.0068ZM56.1159 56.6468L55.2815 57.3738L56.1559 58.3773L56.983 57.3345L56.1159 56.6468ZM52.5959 52.6068L51.6506 52.0314L51.2295 52.7232L51.7615 53.3338L52.5959 52.6068ZM55.8359 49.6468L56.3529 50.6253L56.36 50.6215L56.3671 50.6176L55.8359 49.6468ZM67.0359 50.5668L66.3042 51.397L66.3116 51.4036L66.3192 51.41L67.0359 50.5668ZM68.6759 59.4868L69.68 59.9521L69.6842 59.9429L68.6759 59.4868ZM66.8359 62.1268L67.5865 62.94L67.5878 62.9388L66.8359 62.1268ZM64.7559 63.9268L65.4306 64.804L65.4411 64.796L65.4513 64.7877L64.7559 63.9268ZM63.0359 65.6868L62.1328 65.0471L62.1274 65.0548L63.0359 65.6868ZM62.5559 67.6868V68.7935H63.8386L63.6506 67.5246L62.5559 67.6868ZM57.1159 67.6868L56.0185 67.8299L56.1442 68.7935H57.1159V67.6868ZM57.3559 64.4868L56.3222 64.0916L56.3171 64.105L56.3123 64.1185L57.3559 64.4868ZM58.7959 62.3268L59.5221 63.1619L59.5322 63.1531L59.5421 63.1441L58.7959 62.3268ZM60.6359 60.8068L61.2937 61.6968L61.2999 61.6921L60.6359 60.8068ZM62.2759 59.1268L61.3906 58.4628L61.3815 58.4748L61.3728 58.4871L62.2759 59.1268ZM57.1959 70.5268L56.3998 69.7581V69.7581L57.1959 70.5268ZM62.8359 70.5268L62.0259 71.2809H62.0259L62.8359 70.5268ZM62.8359 76.0068L62.0014 75.28L61.9996 75.282L62.8359 76.0068ZM57.1959 76.0068L56.3869 76.7619H56.3869L57.1959 76.0068ZM64.1026 56.9668C64.1026 55.9772 63.6754 55.1259 62.9581 54.4445L61.4337 56.0491C61.783 56.381 61.8892 56.6764 61.8892 56.9668H64.1026ZM62.9784 54.4643C62.2631 53.7489 61.3678 53.3801 60.3559 53.3801V55.5935C60.784 55.5935 61.1154 55.7313 61.4134 56.0293L62.9784 54.4643ZM60.3559 53.3801C59.2509 53.3801 58.2442 53.5726 57.4114 54.0434L58.5004 55.9702C58.8943 55.7476 59.4876 55.5935 60.3559 55.5935V53.3801ZM57.444 54.0256C56.6474 54.4413 55.9205 55.1122 55.2488 55.9591L56.983 57.3345C57.538 56.6347 58.0378 56.2123 58.4678 55.9879L57.444 54.0256ZM56.9503 55.9198L53.4303 51.8798L51.7615 53.3338L55.2815 57.3738L56.9503 55.9198ZM53.5412 53.1822C54.1726 52.1449 55.0956 51.2895 56.3529 50.6253L55.319 48.6683C53.7496 49.4974 52.5125 50.6154 51.6506 52.0314L53.5412 53.1822ZM56.3671 50.6176C57.598 49.9441 59.0246 49.5935 60.6759 49.5935V47.3801C58.7006 47.3801 56.9005 47.8028 55.3047 48.676L56.3671 50.6176ZM60.6759 49.5935C63.1486 49.5935 64.9832 50.2327 66.3042 51.397L67.7676 49.7366C65.942 48.1275 63.5366 47.3801 60.6759 47.3801V49.5935ZM66.3192 51.41C67.6821 52.5685 68.3292 53.958 68.3292 55.6468H70.5426C70.5426 53.2822 69.5898 51.2851 67.7526 49.7236L66.3192 51.41ZM68.3292 55.6468C68.3292 56.9562 68.0993 58.0765 67.6676 59.0307L69.6842 59.9429C70.2659 58.6571 70.5426 57.2174 70.5426 55.6468H68.3292ZM67.6718 59.0215C67.2124 60.0129 66.677 60.7657 66.084 61.3148L67.5878 62.9388C68.4348 62.1545 69.1261 61.1474 69.68 59.9521L67.6718 59.0215ZM66.0853 61.3136C65.4088 61.9381 64.7339 62.522 64.0605 63.0659L65.4513 64.7877C66.1646 64.2116 66.8763 63.5955 67.5865 62.94L66.0853 61.3136ZM64.0812 63.0496C63.3103 63.6426 62.6569 64.3073 62.1328 65.0471L63.939 66.3265C64.3216 65.7863 64.8149 65.2776 65.4306 64.804L64.0812 63.0496ZM62.1274 65.0548C61.5446 65.8927 61.312 66.8421 61.4612 67.849L63.6506 67.5246C63.5865 67.0915 63.6739 66.7076 63.9444 66.3188L62.1274 65.0548ZM62.5559 66.5801H57.1159V68.7935H62.5559V66.5801ZM58.2133 67.5437C58.0695 66.4415 58.1515 65.5578 58.3995 64.8551L56.3123 64.1185C55.9203 65.2292 55.8423 66.4788 56.0185 67.8299L58.2133 67.5437ZM58.3896 64.882C58.6839 64.1122 59.0701 63.555 59.5221 63.1619L58.0697 61.4917C57.2951 62.1653 56.7212 63.0481 56.3222 64.0916L58.3896 64.882ZM59.5421 63.1441C60.1297 62.6076 60.7136 62.1255 61.2937 61.6968L59.9781 59.9168C59.3315 60.3948 58.6888 60.926 58.0497 61.5095L59.5421 63.1441ZM61.2999 61.6921C62.03 61.1446 62.6579 60.5022 63.179 59.7665L61.3728 58.4871C60.9873 59.0314 60.5218 59.509 59.9719 59.9215L61.2999 61.6921ZM63.1612 59.7908C63.7849 58.9592 64.1026 58.0062 64.1026 56.9668H61.8892C61.8892 57.5273 61.7269 58.0144 61.3906 58.4628L63.1612 59.7908ZM57.1826 73.1268C57.1826 72.4889 57.4186 71.8894 57.992 71.2955L56.3998 69.7581C55.4798 70.7109 54.9692 71.8447 54.9692 73.1268H57.1826ZM57.992 71.2955C58.5 70.7693 59.1832 70.4735 60.1559 70.4735V68.2601C58.6753 68.2601 57.3851 68.7376 56.3998 69.7581L57.992 71.2955ZM60.1559 70.4735C60.9187 70.4735 61.5175 70.7348 62.0259 71.2809L63.6459 69.7727C62.7143 68.7721 61.5265 68.2601 60.1559 68.2601V70.4735ZM62.0259 71.2809C62.5761 71.8718 62.8092 72.4758 62.8092 73.1268H65.0226C65.0226 71.8578 64.5357 70.7284 63.6459 69.7727L62.0259 71.2809ZM62.8092 73.1268C62.8092 73.9522 62.5464 74.6542 62.0014 75.28L63.6704 76.7336C64.5654 75.7061 65.0226 74.4881 65.0226 73.1268H62.8092ZM61.9996 75.282C61.5242 75.8305 60.9403 76.1001 60.1559 76.1001V78.3135C61.5582 78.3135 62.7609 77.7831 63.6722 76.7316L61.9996 75.282ZM60.1559 76.1001C59.195 76.1001 58.5159 75.7991 58.0049 75.2517L56.3869 76.7619C57.3693 77.8145 58.6635 78.3135 60.1559 78.3135V76.1001ZM58.0049 75.2517C57.4545 74.6619 57.1826 73.9738 57.1826 73.1268H54.9692C54.9692 74.5198 55.444 75.7517 56.3869 76.7619L58.0049 75.2517Z" fill="black"/>
<defs>
<filter id="filter0_dd" x="0.0800018" y="0.0800018" width="133.476" height="135.013" filterUnits="userSpaceOnUse" color-interpolation-filters="sRGB">
<feFlood flood-opacity="0" result="BackgroundImageFix"/>
<feColorMatrix in="SourceAlpha" type="matrix" values="0 0 0 0 0 0 0 0 0 0 0 0 0 0 0 0 0 0 127 0"/>
<feOffset dx="9.96" dy="9.96"/>
<feGaussianBlur stdDeviation="11.0667"/>
<feColorMatrix type="matrix" values="0 0 0 0 0.873016 0 0 0 0 0.870833 0 0 0 0 0.916667 0 0 0 1 0"/>
<feBlend mode="normal" in2="BackgroundImageFix" result="effect1_dropShadow"/>
<feColorMatrix in="SourceAlpha" type="matrix" values="0 0 0 0 0 0 0 0 0 0 0 0 0 0 0 0 0 0 127 0"/>
<feOffset dx="-8.85333" dy="-8.85333"/>
<feGaussianBlur stdDeviation="5.53333"/>
<feColorMatrix type="matrix" values="0 0 0 0 1 0 0 0 0 1 0 0 0 0 1 0 0 0 1 0"/>
<feBlend mode="normal" in2="effect1_dropShadow" result="effect2_dropShadow"/>
<feBlend mode="normal" in="SourceGraphic" in2="effect2_dropShadow" result="shape"/>
</filter>
<linearGradient id="paint0_linear" x1="46.8981" y1="41.9028" x2="60.7315" y2="103" gradientUnits="userSpaceOnUse">
<stop stop-color="#E7E7E7"/>
<stop offset="1" stop-color="white"/>
</linearGradient>
<linearGradient id="paint1_linear" x1="60.5553" y1="27.2686" x2="60.5553" y2="95.9549" gradientUnits="userSpaceOnUse">
<stop stop-color="white"/>
<stop offset="1" stop-color="white" stop-opacity="0"/>
</linearGradient>
<linearGradient id="paint2_linear" x1="36.7793" y1="43.9998" x2="60.5553" y2="95.9549" gradientUnits="userSpaceOnUse">
<stop/>
<stop offset="1" stop-color="white" stop-opacity="0.42"/>
</linearGradient>
</defs>
</svg>
