<?xml version="1.0" standalone="no"?>
  <!DOCTYPE svg PUBLIC "-//W3C//DTD SVG 1.1//EN" "http://www.w3.org/Graphics/SVG/1.1/DTD/svg11.dtd" >
  <svg>
  <metadata>
  Created by font-carrier
  </metadata>
  <defs>
  <font id="YesevaOne-Regular" horiz-adv-x="1305" vert-adv-y="1305" >
    <font-face
      
      font-family="Yeseva One"
      
      font-weight="400"
      
      font-stretch="normal"
      
      units-per-em="1000"
      
      ascent="915"
      
      descent="-240"
      
    />
      <missing-glyph />

      

      
      <glyph glyph-name="uni21" unicode="&#x21;" d="M60 600Q60 652 87.50 683.50Q115 715 155 715Q195 715 222.50 683.50Q250 652 250 600L170 215L140 215L60 600M155-10Q125-10 102.50 13.50Q80 37 80 70Q80 103 102.50 126.50Q125 150 155 150Q185 150 207.50 126.50Q230 103 230 70Q230 37 207.50 13.50Q185-10 155-10Z"  horiz-adv-x="310" vert-adv-y="1000"  />

      
      <glyph glyph-name="uni22" unicode="&#x22;" d="M45 640Q45 673 61.50 691.50Q78 710 105 710Q132 710 148.50 691.50Q165 673 165 640L125 445L85 445L45 640M205 640Q205 673 221.50 691.50Q238 710 265 710Q292 710 308.50 691.50Q325 673 325 640L285 445L245 445L205 640Z"  horiz-adv-x="370" vert-adv-y="1000"  />

      
      <glyph glyph-name="uni23" unicode="&#x23;" d="M85 0L132 185L20 185L20 235L145 235L204 465L70 465L70 515L217 515L265 700L325 700L277 515L457 515L505 700L565 700L517 515L630 515L630 465L504 465L445 235L580 235L580 185L432 185L385 0L325 0L372 185L192 185L145 0L85 0M205 235L385 235L444 465L264 465L205 235Z"  horiz-adv-x="650" vert-adv-y="1000"  />

      
      <glyph glyph-name="uni24" unicode="&#x24;" d="M290-15Q222-14 160 18Q136 31 115 50Q101 27 80 9Q62-4 60-5L35-5L35 185L75 185Q90 136 117 97Q178 10 275 10Q287 10 290 11L290 266L244 293Q179 331 139.50 360.50Q100 390 72.50 434.50Q45 479 45 540Q45 589 72.50 628.50Q100 668 155 691.50Q210 715 290 715L290 780L320 780L320 712Q376 702 414 677Q434 665 450 650Q467 676 485 691Q503 704 505 705L530 705L530 515L490 515Q476 563 453 599Q430 636 396.50 661Q363 686 320 689L320 441Q348 423 380 405Q442 370 479.50 342Q517 314 543.50 274Q570 234 570 180Q570 129 542 86Q514 43 457.50 16.50Q401-10 320-14L320-80L290-80L290-15M290 687Q257 679 236 650Q215 621 215 580Q215 544 234.50 515.50Q254 487 290 461L290 687M320 17Q357 29 378.50 60Q400 91 400 135Q400 168 379 195.50Q358 223 320 248L320 17Z"  horiz-adv-x="595" vert-adv-y="1000"  />

      
      <glyph glyph-name="uni25" unicode="&#x25;" d="M195 360Q148 360 110.50 382Q73 404 51.50 443.50Q30 483 30 535Q30 587 51.50 626.50Q73 666 110.50 688Q148 710 195 710Q242 710 279.50 688Q317 666 338.50 626.50Q360 587 360 535Q360 483 338.50 443.50Q317 404 279.50 382Q242 360 195 360M90 0L605 700L660 700L145 0L90 0M195 380Q218 380 234 415Q250 450 250 535Q250 620 234 655Q218 690 195 690Q172 690 156 655Q140 620 140 535Q140 450 156 415Q172 380 195 380M555-10Q508-10 470.50 12Q433 34 411.50 73.50Q390 113 390 165Q390 217 411.50 256.50Q433 296 470.50 318Q508 340 555 340Q602 340 639.50 318Q677 296 698.50 256.50Q720 217 720 165Q720 113 698.50 73.50Q677 34 639.50 12Q602-10 555-10M555 10Q578 10 594 45Q610 80 610 165Q610 250 594 285Q578 320 555 320Q532 320 516 285Q500 250 500 165Q500 80 516 45Q532 10 555 10Z"  horiz-adv-x="750" vert-adv-y="1000"  />

      
      <glyph glyph-name="uni26" unicode="&#x26;" d="M280-15Q20-15 20 160Q20 212 47 247.50Q74 283 117 309Q161 333 215 345L160 425Q137 458 123.50 490Q110 522 110 560Q110 603 133.50 638Q157 673 203.50 694Q250 715 315 715Q368 715 417 682Q438 668 455 650Q472 676 490 691Q508 704 510 705L535 705L535 515L495 515Q482 560 458 602Q434 641 404.50 665.50Q375 690 335 690Q304 690 282 665.50Q260 641 260 600Q260 567 278 534Q296 501 322 465L500 215Q509 232 517 252Q535 298 535 345L455 375L455 390L640 390L640 375L560 345Q560 295 538 237Q526 209 517 190L630 30L680 15L680 0L540 0Q499 0 469.50 13Q440 26 425 50Q408 30 388 17Q340-15 280-15M300 10Q341 10 379 40Q399 56 410 70L230 325Q218 312 210 291Q190 246 190 160Q190 88 221.50 49Q253 10 300 10Z"  horiz-adv-x="690" vert-adv-y="1000"  />

      
      <glyph glyph-name="uni27" unicode="&#x27;" d="M45 640Q45 673 61.50 691.50Q78 710 105 710Q132 710 148.50 691.50Q165 673 165 640L125 445L85 445L45 640Z"  horiz-adv-x="210" vert-adv-y="1000"  />

      
      <glyph glyph-name="uni28" unicode="&#x28;" d="M330-240Q207-159 128.50-29.50Q50 100 50 265Q50 430 127.50 557.50Q205 685 330 770L340 755Q281 678 250.50 550Q220 422 220 265Q220 108 250.50-20Q281-148 340-225L330-240Z"  horiz-adv-x="355" vert-adv-y="1000"  />

      
      <glyph glyph-name="uni29" unicode="&#x29;" d="M15-225Q74-148 104.50-20Q135 108 135 265Q135 422 104.50 550Q74 678 15 755L25 770Q150 685 227.50 557.50Q305 430 305 265Q305 100 226.50-29.50Q148-159 25-240L15-225Z"  horiz-adv-x="355" vert-adv-y="1000"  />

      
      <glyph glyph-name="uni2a" unicode="&#x2a;" d="M195 370Q176 370 163 383Q150 396 150 415L180 515L110 440Q99 433 83 433Q70 433 60 438.50Q50 444 45 455Q40 467 40 476Q40 488 46.50 498.50Q53 509 65 515L165 540L65 565Q53 571 46.50 581.50Q40 592 40 604Q40 625 52.50 636Q65 647 83 647Q99 647 110 640L180 565L150 665Q150 684 163 697Q176 710 195 710Q214 710 227 697Q240 684 240 665L210 565L280 640Q291 647 307 647Q320 647 330 641.50Q340 636 345 625Q350 613 350 604Q350 592 343.50 581.50Q337 571 325 565L225 540L325 515Q337 509 343.50 498.50Q350 488 350 476Q350 455 337.50 444Q325 433 307 433Q291 433 280 440L210 515L240 415Q240 396 227 383Q214 370 195 370Z"  horiz-adv-x="390" vert-adv-y="1000"  />

      
      <glyph glyph-name="uni2b" unicode="&#x2b;" d="M235 95L235 310L35 310L35 355L235 355L235 570L280 570L280 355L480 355L480 310L280 310L280 95L235 95Z"  horiz-adv-x="515" vert-adv-y="1000"  />

      
      <glyph glyph-name="uni2c" unicode="&#x2c;" d="M70-105Q91-98 112-82Q155-50 165 5L152-3Q139-10 120-10Q90-10 67.50 12.50Q45 35 45 65Q45 95 67.50 117.50Q90 140 120 140Q155 140 177.50 115.50Q200 91 200 50Q200-42 140-94Q114-118 80-130L70-105Z"  horiz-adv-x="245" vert-adv-y="1000"  />

      
      <glyph glyph-name="uni2d" unicode="&#x2d;" d="M35 300L35 345L435 345L435 300L35 300Z"  horiz-adv-x="470" vert-adv-y="1000"  />

      
      <glyph glyph-name="uni2e" unicode="&#x2e;" d="M120-10Q90-10 67.50 12.50Q45 35 45 65Q45 95 67.50 117.50Q90 140 120 140Q150 140 172.50 117.50Q195 95 195 65Q195 35 172.50 12.50Q150-10 120-10Z"  horiz-adv-x="240" vert-adv-y="1000"  />

      
      <glyph glyph-name="uni2f" unicode="&#x2f;" d="M-20-50L325 750L370 750L25-50L-20-50Z"  horiz-adv-x="350" vert-adv-y="1000"  />

      
      <glyph glyph-name="uni30" unicode="&#x30;" d="M335-15Q254-15 188 28Q122 71 83.50 153.50Q45 236 45 350Q45 464 83.50 546.50Q122 629 188 672Q254 715 335 715Q416 715 482 672Q548 629 586.50 546.50Q625 464 625 350Q625 236 586.50 153.50Q548 71 482 28Q416-15 335-15M335 5Q450 5 450 350Q450 695 335 695Q220 695 220 350Q220 5 335 5Z"  horiz-adv-x="670" vert-adv-y="1000"  />

      
      <glyph glyph-name="uni31" unicode="&#x31;" d="M70 0L70 15L140 35L140 584L35 510L15 535L197 700L305 700L305 35L375 15L375 0L70 0Z"  horiz-adv-x="415" vert-adv-y="1000"  />

      
      <glyph glyph-name="uni32" unicode="&#x32;" d="M30 45Q30 104 53.50 152.50Q77 201 111 237Q145 273 200 322Q251 367 280 397.50Q309 428 329 466.50Q349 505 349 550Q349 616 317 653Q285 690 234 690Q205 690 175 682L154 675L154 515L141 512Q125 510 114 510Q80 510 59.50 530.50Q39 551 39 585Q39 617 63.50 647Q88 677 136.50 696Q185 715 254 715Q389 715 454 661Q519 607 519 510Q519 449 487.50 405Q456 361 410.50 332Q365 303 289 266Q225 235 185.50 211.50Q146 188 112.50 155Q79 122 65 80L435 80Q442 134 469 170Q480 187 495 200L525 200L525 0L30 0L30 45Z"  horiz-adv-x="575" vert-adv-y="1000"  />

      
      <glyph glyph-name="uni33" unicode="&#x33;" d="M240-15Q171-15 122.50 4Q74 23 49.50 53Q25 83 25 115Q25 149 45.50 169.50Q66 190 100 190Q108 190 116 188.50Q124 187 127 187L140 185L140 25Q141 25 161 17Q187 10 220 10Q290 10 327.50 52.50Q365 95 365 180Q365 267 328.50 311Q292 355 230 355L180 355L180 380L230 380Q275 380 305 420Q335 460 335 535Q335 610 304 650Q273 690 225 690Q199 690 175 682Q172 681 155 675L155 515L142 512Q126 510 115 510Q81 510 60.50 530.50Q40 551 40 585Q40 616 64 646Q88 676 134.50 695.50Q181 715 245 715Q329 715 387.50 690.50Q446 666 475.50 625Q505 584 505 535Q505 478 476 444.50Q447 411 400 391Q354 373 295 370L295 365Q361 362 415 342Q535 294 535 180Q535 92 462.50 38.50Q390-15 240-15Z"  horiz-adv-x="585" vert-adv-y="1000"  />

      
      <glyph glyph-name="uni34" unicode="&#x34;" d="M235 0L235 15L305 35L305 185L20 185L0 215L375 710L470 710L470 230L575 230L575 185L470 185L470 35L540 15L540 0L235 0M55 230L305 230L305 560L55 230Z"  horiz-adv-x="600" vert-adv-y="1000"  />

      
      <glyph glyph-name="uni35" unicode="&#x35;" d="M250-15Q181-15 132.50 4Q84 23 59.50 53Q35 83 35 115Q35 149 55.50 169.50Q76 190 110 190Q118 190 126 188.50Q134 187 137 187L150 185L150 25Q151 25 171 17Q197 10 230 10Q290 10 325 59.50Q360 109 360 215Q360 320 324 367.50Q288 415 220 415Q194 415 171 406Q148 397 122 382Q101 369 80 350L60 365L100 700L395 700Q402 754 429 790Q440 807 455 820L485 820L485 625L122 625L95 395Q109 405 136 417Q192 440 240 440Q386 440 458 380.50Q530 321 530 215Q530 107 459 46Q388-15 250-15Z"  horiz-adv-x="570" vert-adv-y="1000"  />

      
      <glyph glyph-name="uni36" unicode="&#x36;" d="M320-15Q194-15 122 75Q50 165 50 350Q50 530 128.50 622.50Q207 715 345 715Q404 715 448.50 695.50Q493 676 516.50 646Q540 616 540 585Q540 551 519.50 530.50Q499 510 465 510Q451 510 437 512L425 515L425 675L406 682Q384 690 365 690Q316 690 284.50 664Q253 638 236.50 568Q220 498 220 370Q231 387 247 400Q285 430 335 430Q408 430 462.50 402.50Q517 375 546 326Q575 277 575 215Q575 108 508.50 46.50Q442-15 320-15M320 5Q340 5 359.50 25Q379 45 392 90Q405 135 405 205Q405 275 391.50 320Q378 365 357.50 385Q337 405 315 405Q274 405 249.50 365Q225 325 225 240Q225 113 252.50 59Q280 5 320 5Z"  horiz-adv-x="620" vert-adv-y="1000"  />

      
      <glyph glyph-name="uni37" unicode="&#x37;" d="M145 0Q145 99 172.50 175.50Q200 252 239 306.50Q278 361 341 430Q396 490 427.50 532.50Q459 575 475 625L120 625Q113 571 86 535Q75 518 60 505L30 505L30 700L505 700L505 655Q505 599 487.50 551Q470 503 433 427Q397 356 374.50 301Q352 246 336 169.50Q320 93 320 0L145 0Z"  horiz-adv-x="530" vert-adv-y="1000"  />

      
      <glyph glyph-name="uni38" unicode="&#x38;" d="M295-15Q169-15 104.50 35Q40 85 40 165Q40 220 88 271.50Q136 323 205 345Q139 382 104.50 426.50Q70 471 70 535Q70 615 134.50 665Q199 715 325 715Q388 715 435.50 692Q483 669 509 632Q535 595 535 555Q535 508 494.50 464Q454 420 400 405Q491 365 538 310Q585 255 585 175Q585 123 553 80Q521 37 456 11Q391-15 295-15M370 425Q408 442 431.50 474Q455 506 455 555Q455 591 437.50 622Q420 653 392.50 671.50Q365 690 335 690Q292 690 263.50 656.50Q235 623 235 565Q235 485 370 425M285 10Q349 10 384.50 45.50Q420 81 420 145Q420 193 372 242Q324 291 245 325Q189 305 157 265.50Q125 226 125 165Q125 123 146.50 87.50Q168 52 204.50 31Q241 10 285 10Z"  horiz-adv-x="615" vert-adv-y="1000"  />

      
      <glyph glyph-name="uni39" unicode="&#x39;" d="M275-15Q216-15 171.50 4.50Q127 24 103.50 54Q80 84 80 115Q80 149 100.50 169.50Q121 190 155 190Q163 190 171 188.50Q179 187 182 187L195 185L195 25L214 17Q232 10 255 10Q304 10 335 36Q366 62 383 132Q400 202 400 330Q391 315 372 300Q334 270 285 270Q212 270 157.50 297.50Q103 325 74 374Q45 423 45 485Q45 592 111.50 653.50Q178 715 300 715Q426 715 498 625Q570 535 570 350Q570 170 491.50 77.50Q413-15 275-15M305 295Q346 295 370.50 335Q395 375 395 460Q395 587 367.50 641Q340 695 300 695Q280 695 260.50 675Q241 655 228 610Q215 565 215 495Q215 425 228.50 380Q242 335 262.50 315Q283 295 305 295Z"  horiz-adv-x="620" vert-adv-y="1000"  />

      
      <glyph glyph-name="uni3a" unicode="&#x3a;" d="M120 360Q90 360 67.50 382.50Q45 405 45 435Q45 465 67.50 487.50Q90 510 120 510Q150 510 172.50 487.50Q195 465 195 435Q195 405 172.50 382.50Q150 360 120 360M120-10Q90-10 67.50 12.50Q45 35 45 65Q45 95 67.50 117.50Q90 140 120 140Q150 140 172.50 117.50Q195 95 195 65Q195 35 172.50 12.50Q150-10 120-10Z"  horiz-adv-x="240" vert-adv-y="1000"  />

      
      <glyph glyph-name="uni3b" unicode="&#x3b;" d="M120 360Q90 360 67.50 382.50Q45 405 45 435Q45 465 67.50 487.50Q90 510 120 510Q150 510 172.50 487.50Q195 465 195 435Q195 405 172.50 382.50Q150 360 120 360M70-105Q91-98 112-82Q155-50 165 5L152-3Q139-10 120-10Q90-10 67.50 12.50Q45 35 45 65Q45 95 67.50 117.50Q90 140 120 140Q155 140 177.50 115.50Q200 91 200 50Q200-42 140-94Q114-118 80-130L70-105Z"  horiz-adv-x="245" vert-adv-y="1000"  />

      
      <glyph glyph-name="uni3c" unicode="&#x3c;" d="M470 0L25 250L470 500L470 445L125 250L470 55L470 0Z"  horiz-adv-x="505" vert-adv-y="1000"  />

      
      <glyph glyph-name="uni3d" unicode="&#x3d;" d="M35 385L35 430L425 430L425 385L35 385M35 235L35 280L425 280L425 235L35 235Z"  horiz-adv-x="460" vert-adv-y="1000"  />

      
      <glyph glyph-name="uni3e" unicode="&#x3e;" d="M35 0L35 55L380 250L35 445L35 500L480 250L35 0Z"  horiz-adv-x="505" vert-adv-y="1000"  />

      
      <glyph glyph-name="uni3f" unicode="&#x3f;" d="M225 310Q286 334 318 380Q350 426 350 510Q350 606 315.50 648Q281 690 210 690Q181 690 151 682L130 675L130 515L117 512Q101 510 90 510Q56 510 35.50 530.50Q15 551 15 585Q15 617 39.50 647Q64 677 112.50 696Q161 715 230 715Q376 715 450.50 658Q525 601 525 510Q525 425 462.50 369Q400 313 275 295L270 215L230 215L225 310M245-10Q215-10 192.50 13.50Q170 37 170 70Q170 103 192.50 126.50Q215 150 245 150Q275 150 297.50 126.50Q320 103 320 70Q320 37 297.50 13.50Q275-10 245-10Z"  horiz-adv-x="560" vert-adv-y="1000"  />

      
      <glyph glyph-name="uni40" unicode="&#x40;" d="M420-100Q316-100 229-48.50Q142 3 91 92.50Q40 182 40 290Q40 398 91 487.50Q142 577 229 628.50Q316 680 420 680Q524 680 611 628.50Q698 577 749 487.50Q800 398 800 290Q800 225 777 176Q754 127 716 101Q678 75 635 75Q541 75 499 115Q481 133 475 155Q468 133 454 115Q422 75 365 75Q292 75 246 125Q200 175 200 260Q200 374 265.50 437Q331 500 455 500L600 500L600 175Q600 138 615.50 119Q631 100 655 100Q679 100 704.50 122.50Q730 145 747.50 188Q765 231 765 290Q765 390 718.50 472.50Q672 555 593 602.50Q514 650 420 650Q326 650 247 602.50Q168 555 121.50 472.50Q75 390 75 290Q75 190 121.50 107.50Q168 25 247-22.50Q326-70 420-70Q486-70 556-40Q586-26 610-10L625-35Q601-54 567-68Q495-100 420-100M405 110Q427 110 443 140Q451 154 455 170L455 475Q345 475 345 260Q345 180 362 145Q379 110 405 110Z"  horiz-adv-x="840" vert-adv-y="1000"  />

      
      <glyph glyph-name="uni41" unicode="&#x41;" d="M-20 15L60 45L335 710L365 710L650 30L700 15L700 0L580 0Q528 0 495 23.50Q462 47 446 85L395 205L156 205L90 45L165 15L165 0L-20 0L-20 15M166 230L385 230L275 493L166 230Z"  horiz-adv-x="680" vert-adv-y="1000"  />

      
      <glyph glyph-name="uni42" unicode="&#x42;" d="M50 15L110 30L110 670L50 685L50 700L320 700Q472 700 543.50 651.50Q615 603 615 525Q615 471 584 438Q553 405 505 389Q454 371 395 370L395 365Q468 362 522 343Q577 325 613.50 287Q650 249 650 190Q650 101 577 50.50Q504 0 340 0L50 0L50 15M320 380Q353 380 381.50 398.50Q410 417 427.50 450.50Q445 484 445 525Q445 569 427.50 603Q410 637 381.50 656Q353 675 320 675L275 675L275 380L320 380M340 25Q402 25 441 69Q480 113 480 190Q480 267 441 311Q402 355 340 355L275 355L275 25L340 25Z"  horiz-adv-x="680" vert-adv-y="1000"  />

      
      <glyph glyph-name="uni43" unicode="&#x43;" d="M385-15Q225-15 135 80Q45 175 45 350Q45 465 84.50 547.50Q124 630 195.50 672.50Q267 715 361 715Q418 715 476 682Q498 670 520 650Q537 676 555 691Q573 704 575 705L600 705L600 515L560 515Q547 563 521 602Q497 640 461.50 665Q426 690 380 690Q311 690 265.50 610Q220 530 220 350Q220 167 269.50 88.50Q319 10 405 10Q452 10 494.50 36.50Q537 63 563.50 107Q590 151 590 200L615 200Q615 143 584.50 93.50Q554 44 501.50 14.50Q449-15 385-15Z"  horiz-adv-x="650" vert-adv-y="1000"  />

      
      <glyph glyph-name="uni44" unicode="&#x44;" d="M50 15L110 30L110 670L50 685L50 700L305 700Q484 700 579.50 608Q675 516 675 350Q675 184 579.50 92Q484 0 305 0L50 0L50 15M305 25Q398 25 449 100.50Q500 176 500 350Q500 524 449 599.50Q398 675 305 675L275 675L275 25L305 25Z"  horiz-adv-x="715" vert-adv-y="1000"  />

      
      <glyph glyph-name="uni45" unicode="&#x45;" d="M50 15L110 30L110 670L50 685L50 700L585 700L585 520L555 520Q536 535 522 558Q490 612 490 675L275 675L275 360L390 360Q397 398 416 431Q424 446 435 460L465 460L465 235L435 235Q424 249 416 264Q397 297 390 335L275 335L275 25L510 25Q510 88 542 142Q556 165 575 180L605 180L605 0L50 0L50 15Z"  horiz-adv-x="645" vert-adv-y="1000"  />

      
      <glyph glyph-name="uni46" unicode="&#x46;" d="M50 15L110 30L110 670L50 685L50 700L585 700L585 520L555 520Q536 535 522 558Q490 612 490 675L275 675L275 360L390 360Q397 398 416 431Q424 446 435 460L465 460L465 235L435 235Q424 249 416 264Q397 297 390 335L275 335L275 30L335 15L335 0L50 0L50 15Z"  horiz-adv-x="610" vert-adv-y="1000"  />

      
      <glyph glyph-name="uni47" unicode="&#x47;" d="M325-15Q249-15 185 28Q121 71 83 153.50Q45 236 45 350Q45 465 84.50 547.50Q124 630 195.50 672.50Q267 715 361 715Q418 715 476 682Q498 670 520 650Q537 676 555 691Q573 704 575 705L600 705L600 515L560 515Q547 563 521 602Q497 640 461.50 665Q426 690 380 690Q311 690 265.50 610Q220 530 220 350Q220 170 260.50 95Q301 20 365 20Q402 20 432 60Q443 75 455 100L455 330L395 345L395 360L680 360L680 345L620 330L620-5L605-5Q532-5 494 35Q477 53 470 75Q456 50 437 30Q392-15 325-15Z"  horiz-adv-x="700" vert-adv-y="1000"  />

      
      <glyph glyph-name="uni48" unicode="&#x48;" d="M50 0L50 15L110 30L110 670L50 685L50 700L335 700L335 685L275 670L275 360L490 360L490 670L430 685L430 700L715 700L715 685L655 670L655 30L715 15L715 0L430 0L430 15L490 30L490 335L275 335L275 30L335 15L335 0L50 0Z"  horiz-adv-x="765" vert-adv-y="1000"  />

      
      <glyph glyph-name="uni49" unicode="&#x49;" d="M50 0L50 15L110 30L110 670L50 685L50 700L335 700L335 685L275 670L275 30L335 15L335 0L50 0Z"  horiz-adv-x="385" vert-adv-y="1000"  />

      
      <glyph glyph-name="uni4a" unicode="&#x4a;" d="M185-15Q93-15 46.50 17Q0 49 0 95Q0 129 20.50 149.50Q41 170 75 170Q83 170 91 168.50Q99 167 102 167L115 165L115 15Q122 11 129 10Q146 5 165 5Q285 5 285 200L285 670L225 685L225 700L510 700L510 685L450 670L450 200Q450 96 385 40.50Q320-15 185-15Z"  horiz-adv-x="550" vert-adv-y="1000"  />

      
      <glyph glyph-name="uni4b" unicode="&#x4b;" d="M50 15L110 30L110 670L50 685L50 700L335 700L335 685L275 670L275 356L520 655L445 685L445 700L635 700L635 685L555 655L380 440L650 30L700 15L700 0L560 0Q515 0 483.50 22.50Q452 45 425 85L275 315L275 30L335 15L335 0L50 0L50 15Z"  horiz-adv-x="690" vert-adv-y="1000"  />

      
      <glyph glyph-name="uni4c" unicode="&#x4c;" d="M50 15L110 30L110 670L50 685L50 700L335 700L335 685L275 670L275 25L490 25Q490 88 522 142Q536 165 555 180L585 180L585 0L50 0L50 15Z"  horiz-adv-x="610" vert-adv-y="1000"  />

      
      <glyph glyph-name="uni4d" unicode="&#x4d;" d="M140 575L140 45L220 15L220 0L30 0L30 15L110 45L110 670L50 685L50 700L175 700Q227 700 257.50 678.50Q288 657 310 615L528 198L695 615Q712 659 741 679.50Q770 700 830 700L935 700L935 685L875 670L875 30L935 15L935 0L650 0L650 15L710 30L710 575L475-10L445-10L140 575Z"  horiz-adv-x="985" vert-adv-y="1000"  />

      
      <glyph glyph-name="uni4e" unicode="&#x4e;" d="M140 530L140 45L220 15L220 0L30 0L30 15L110 45L110 665L40 685L40 700L145 700Q198 700 228 681Q258 662 285 630L605 255L605 655L525 685L525 700L715 700L715 685L635 655L635-15L605-15L140 530Z"  horiz-adv-x="740" vert-adv-y="1000"  />

      
      <glyph glyph-name="uni4f" unicode="&#x4f;" d="M370-15Q272-15 198.50 27.50Q125 70 85 152Q45 234 45 350Q45 466 85 548Q125 630 198.50 672.50Q272 715 370 715Q468 715 541.50 672.50Q615 630 655 548Q695 466 695 350Q695 234 655 152Q615 70 541.50 27.50Q468-15 370-15M370 5Q409 5 442.50 38Q476 71 498 148Q520 225 520 350Q520 475 498 552Q476 629 442.50 662Q409 695 370 695Q331 695 297.50 662Q264 629 242 552Q220 475 220 350Q220 225 242 148Q264 71 297.50 38Q331 5 370 5Z"  horiz-adv-x="740" vert-adv-y="1000"  />

      
      <glyph glyph-name="uni50" unicode="&#x50;" d="M50 15L110 30L110 670L50 685L50 700L330 700Q496 700 568 645.50Q640 591 640 485Q640 379 568 324.50Q496 270 330 270L275 270L275 30L335 15L335 0L50 0L50 15M330 295Q393 295 431.50 343Q470 391 470 485Q470 578 431.50 626.50Q393 675 330 675L275 675L275 295L330 295Z"  horiz-adv-x="675" vert-adv-y="1000"  />

      
      <glyph glyph-name="uni51" unicode="&#x51;" d="M470-170Q416-170 375-148.50Q334-127 312-89.50Q290-52 290-5Q175 19 110 110.50Q45 202 45 350Q45 466 85 548Q125 630 198.50 672.50Q272 715 370 715Q468 715 541.50 672.50Q615 630 655 548Q695 466 695 350Q695 202 630 110.50Q565 19 450-5Q450-140 500-140Q514-140 522-135Q523-135 530-130L540-155Q536-158 524-163Q506-170 470-170M370 5Q409 5 442.50 38Q476 71 498 148Q520 225 520 350Q520 475 498 552Q476 629 442.50 662Q409 695 370 695Q331 695 297.50 662Q264 629 242 552Q220 475 220 350Q220 225 242 148Q264 71 297.50 38Q331 5 370 5Z"  horiz-adv-x="740" vert-adv-y="1000"  />

      
      <glyph glyph-name="uni52" unicode="&#x52;" d="M50 15L110 30L110 670L50 685L50 700L315 700Q485 700 560 648.50Q635 597 635 505Q635 443 602 404.50Q569 366 517 347Q462 326 400 325L400 320Q437 318 465 309Q535 287 560 230L650 30L700 15L700 0L560 0Q478 0 440 85L340 310L275 310L275 30L345 15L345 0L50 0L50 15M315 335Q385 335 425 379Q465 423 465 505Q465 587 425 631Q385 675 315 675L275 675L275 335L315 335Z"  horiz-adv-x="700" vert-adv-y="1000"  />

      
      <glyph glyph-name="uni53" unicode="&#x53;" d="M295-15Q224-15 162 17Q134 31 115 50Q101 27 80 9Q62-4 60-5L35-5L35 185L75 185Q90 136 117 97Q178 10 275 10Q332 10 366 44Q400 78 400 135Q400 168 380.50 194Q361 220 332 240Q303 260 251 290Q185 327 144 357Q103 387 74 432.50Q45 478 45 540Q45 589 72.50 628.50Q100 668 155 691.50Q210 715 290 715Q348 715 406 682Q428 670 450 650Q467 676 485 691Q503 704 505 705L530 705L530 515L490 515Q477 563 451 602Q427 640 391.50 665Q356 690 310 690Q271 690 243 659Q215 628 215 580Q215 543 236.50 513.50Q258 484 289.50 462Q321 440 375 409Q438 373 477 345Q516 317 543 275.50Q570 234 570 180Q570 126 539 81.50Q508 37 446 11Q384-15 295-15Z"  horiz-adv-x="595" vert-adv-y="1000"  />

      
      <glyph glyph-name="uni54" unicode="&#x54;" d="M175 15L235 30L235 675L120 675Q120 614 87 558Q73 535 55 520L25 520L25 700L610 700L610 520L580 520Q561 535 547 558Q515 612 515 675L400 675L400 30L460 15L460 0L175 0L175 15Z"  horiz-adv-x="635" vert-adv-y="1000"  />

      
      <glyph glyph-name="uni55" unicode="&#x55;" d="M395-15Q247-15 171 54.50Q95 124 95 250L95 670L35 685L35 700L320 700L320 685L260 670L260 250Q260 121 300 65.50Q340 10 415 10Q461 10 502.50 39.50Q544 69 569.50 123.50Q595 178 595 250L595 655L515 685L515 700L705 700L705 685L625 655L625 250Q625 169 595 109Q565 49 513 17Q461-15 395-15Z"  horiz-adv-x="710" vert-adv-y="1000"  />

      
      <glyph glyph-name="uni56" unicode="&#x56;" d="M30 670L-20 685L-20 700L100 700Q152 700 185 676.50Q218 653 235 615L412 212L575 655L500 685L500 700L685 700L685 685L605 655L360-10L330-10L30 670Z"  horiz-adv-x="665" vert-adv-y="1000"  />

      
      <glyph glyph-name="uni57" unicode="&#x57;" d="M35 675L-20 685L-20 700L100 700Q153 700 187 676Q221 652 235 615L386 230L474 488L400 675L345 685L345 700L465 700Q518 700 551 676.50Q584 653 600 615L751 230L895 655L820 685L820 700L1005 700L1005 685L925 655L700-10L670-10L490 447L335-10L305-10L35 675Z"  horiz-adv-x="985" vert-adv-y="1000"  />

      
      <glyph glyph-name="uni58" unicode="&#x58;" d="M15 15L95 45L265 296L45 670L-5 685L-5 700L140 700Q190 700 219.50 679Q249 658 275 615L371 451L510 655L435 685L435 700L625 700L625 685L545 655L388 424L620 30L670 15L670 0L525 0Q476 0 446 21Q416 42 390 85L282 268L130 45L205 15L205 0L15 0L15 15Z"  horiz-adv-x="665" vert-adv-y="1000"  />

      
      <glyph glyph-name="uni59" unicode="&#x59;" d="M195 15L255 30L255 260L50 670L0 685L0 700L125 700Q177 700 208.50 678Q240 656 260 615L408 320L560 655L485 685L485 700L675 700L675 685L595 655L420 270L420 30L480 15L480 0L195 0L195 15Z"  horiz-adv-x="665" vert-adv-y="1000"  />

      
      <glyph glyph-name="uni5a" unicode="&#x5a;" d="M40 25L411 675L150 675Q150 614 117 558Q103 535 85 520L55 520L55 700L595 700L595 675L225 25L495 25Q495 88 527 142Q541 165 560 180L590 180L590 0L40 0L40 25Z"  horiz-adv-x="635" vert-adv-y="1000"  />

      
      <glyph glyph-name="uni5b" unicode="&#x5b;" d="M85-220L85 720L340 720L340 695L245 695L245-195L340-195L340-220L85-220Z"  horiz-adv-x="350" vert-adv-y="1000"  />

      
      <glyph glyph-name="uni5c" unicode="&#x5c;" d="M325-50L-20 750L25 750L370-50L325-50Z"  horiz-adv-x="350" vert-adv-y="1000"  />

      
      <glyph glyph-name="uni5d" unicode="&#x5d;" d="M10-220L10-195L105-195L105 695L10 695L10 720L265 720L265-220L10-220Z"  horiz-adv-x="350" vert-adv-y="1000"  />

      
      <glyph glyph-name="uni5e" unicode="&#x5e;" d="M30 430L240 720L450 430L390 430L240 635L90 430L30 430Z"  horiz-adv-x="480" vert-adv-y="1000"  />

      
      <glyph glyph-name="uni5f" unicode="&#x5f;" d="M0-100L0-55L390-55L390-100L0-100Z"  horiz-adv-x="390" vert-adv-y="1000"  />

      
      <glyph glyph-name="uni60" unicode="&#x60;" d="M155 550L20 700L150 700L190 550L155 550Z"  horiz-adv-x="220" vert-adv-y="1000"  />

      
      <glyph glyph-name="uni61" unicode="&#x61;" d="M235-15Q146-15 98 23Q50 61 50 120Q50 159 67 197Q74 215 85 230Q126 240 174 248Q282 266 365 270L365 300Q365 411 338 453Q311 495 255 495Q234 495 219 490L205 485L205 335L192 332Q176 330 165 330Q131 330 110.50 350.50Q90 371 90 405Q90 451 136.50 483Q183 515 275 515Q353 515 409.50 487.50Q466 460 495.50 411.50Q525 363 525 300L525 30L585 15L585 0L495 0Q435 0 402 37Q388 52 380 75Q366 50 347 30Q302-15 235-15M275 20Q312 20 342 60Q353 75 365 100L365 245Q319 245 277 240Q246 236 235 235Q230 224 225 205Q215 167 215 130Q215 74 232 47Q249 20 275 20Z"  horiz-adv-x="605" vert-adv-y="1000"  />

      
      <glyph glyph-name="uni62" unicode="&#x62;" d="M370-15Q303-15 258 30Q239 50 225 75Q218 53 201 35Q163-5 90-5L80-5L80 670L20 685L20 700L150 700Q240 700 240 610L240 475Q256 488 271 495Q307 515 355 515Q456 515 515.50 446.50Q575 378 575 250Q575 165 548 105.50Q521 46 475 15.50Q429-15 370-15M330 20Q362 20 383.50 70.50Q405 121 405 250Q405 385 381.50 435Q358 485 315 485Q289 485 262 465Q254 459 240 445L240 100Q249 77 262 60Q292 20 330 20Z"  horiz-adv-x="615" vert-adv-y="1000"  />

      
      <glyph glyph-name="uni63" unicode="&#x63;" d="M310-15Q182-15 111 55.50Q40 126 40 250Q40 374 111 444.50Q182 515 310 515Q402 515 448.50 483Q495 451 495 405Q495 371 474.50 350.50Q454 330 420 330Q406 330 392 332L380 335L380 485L366 490Q351 495 330 495Q273 495 241.50 441Q210 387 210 250Q210 117 241.50 63.50Q273 10 330 10Q369 10 402.50 28.50Q436 47 455.50 77.50Q475 108 475 140L500 140Q500 100 476 64Q452 28 409 6.50Q366-15 310-15Z"  horiz-adv-x="530" vert-adv-y="1000"  />

      
      <glyph glyph-name="uni64" unicode="&#x64;" d="M245-15Q186-15 140 15.50Q94 46 67 105.50Q40 165 40 250Q40 378 99.50 446.50Q159 515 260 515Q308 515 344 495Q359 488 375 475L375 670L315 685L315 700L445 700Q535 700 535 610L535 30L595 15L595 0L505 0Q445 0 412 37Q398 52 390 75Q377 50 357 30Q312-15 245-15M285 20Q322 20 352 60Q363 75 375 100L375 445Q364 456 352 465Q325 485 300 485Q257 485 233.50 435Q210 385 210 250Q210 121 231.50 70.50Q253 20 285 20Z"  horiz-adv-x="620" vert-adv-y="1000"  />

      
      <glyph glyph-name="uni65" unicode="&#x65;" d="M310-15Q182-15 111 55.50Q40 126 40 250Q40 331 71 391Q102 451 157.50 483Q213 515 285 515Q357 515 411.50 488Q466 461 495.50 415.50Q525 370 525 315Q525 290 520 272L515 255Q472 246 422 240Q317 225 210 225Q210 109 242 59.50Q274 10 330 10Q369 10 402.50 28.50Q436 47 455.50 77.50Q475 108 475 140L500 140Q500 100 476 64Q452 28 409 6.50Q366-15 310-15M210 250Q274 250 314 255Q331 256 350 260Q351 265 355 282Q360 307 360 335Q360 418 338 456.50Q316 495 285 495Q210 495 210 250Z"  horiz-adv-x="560" vert-adv-y="1000"  />

      
      <glyph glyph-name="uni66" unicode="&#x66;" d="M35 15L95 30L95 455L25 455L25 480L95 480L95 530Q95 583 120.50 625Q146 667 193.50 691Q241 715 305 715Q357 715 394.50 699.50Q432 684 451 658.50Q470 633 470 605Q470 571 449.50 550.50Q429 530 395 530Q381 530 367 532L355 535L355 690L346 692Q342 693 337 694Q332 695 325 695Q291 695 273 659.50Q255 624 255 530L255 480L415 480L415 455L255 455L255 30L315 15L315 0L35 0L35 15Z"  horiz-adv-x="425" vert-adv-y="1000"  />

      
      <glyph glyph-name="uni67" unicode="&#x67;" d="M275-215Q186-215 130-199Q74-183 49.50-158Q25-133 25-105Q25-71 45.50-50.50Q66-30 100-30Q108-30 129-33L140-35L140-175Q152-179 178-185Q224-195 265-195Q387-195 443.50-160.50Q500-126 500-75Q500-10 380-10L190-10Q115-10 75 21Q35 52 35 100Q35 148 82 185Q101 199 130 210Q93 233 76.50 264.50Q60 296 60 340Q60 414 116 459.50Q172 505 280 505Q327 505 366.50 495.50Q406 486 430 470Q438 487 451 500Q481 530 525 530Q559 530 582 506.50Q605 483 605 445Q605 416 589.50 398Q574 380 550 380Q539 380 525 382L515 385L515 505Q489 505 466 480Q457 471 450 455Q500 411 500 340Q500 266 444 220.50Q388 175 280 175Q208 175 150 200L130 190Q120 184 115 178.50Q110 173 110 165Q110 148 127.50 139Q145 130 190 130L380 130Q455 130 497.50 86.50Q540 43 540-35Q540-115 473.50-165Q407-215 275-215M280 195Q313 195 331.50 227Q350 259 350 340Q350 421 331.50 453Q313 485 280 485Q247 485 228.50 453Q210 421 210 340Q210 259 228.50 227Q247 195 280 195Z"  horiz-adv-x="605" vert-adv-y="1000"  />

      
      <glyph glyph-name="uni68" unicode="&#x68;" d="M40 15L100 30L100 670L40 685L40 700L170 700Q260 700 260 610L260 450Q275 470 291 482Q334 515 390 515Q446 515 490.50 491.50Q535 468 560 430Q585 392 585 350L585 30L645 15L645 0L515 0Q425 0 425 90L425 350Q425 413 402.50 446.50Q380 480 350 480Q312 480 282 440Q269 423 260 400L260 30L320 15L320 0L40 0L40 15Z"  horiz-adv-x="665" vert-adv-y="1000"  />

      
      <glyph glyph-name="uni69" unicode="&#x69;" d="M40 15L100 30L100 470L40 485L40 500L170 500Q260 500 260 410L260 30L320 15L320 0L40 0L40 15M170 560Q140 560 120 580Q100 600 100 630Q100 660 120 680Q140 700 170 700Q200 700 220 680Q240 660 240 630Q240 600 220 580Q200 560 170 560Z"  horiz-adv-x="340" vert-adv-y="1000"  />

      
      <glyph glyph-name="uni6a" unicode="&#x6a;" d="M35-215Q-40-215-75-190Q-110-165-110-120Q-110-86-89.50-65.50Q-69-45-35-45Q-27-45-19-46.50Q-11-48-8-48L5-50L5-190L11-193Q21-195 25-195Q56-195 75.50-157.50Q95-120 95-30L95 470L35 485L35 500L165 500Q255 500 255 410L255-30Q255-83 229-125Q203-167 153-191Q103-215 35-215M165 560Q135 560 115 580Q95 600 95 630Q95 660 115 680Q135 700 165 700Q195 700 215 680Q235 660 235 630Q235 600 215 580Q195 560 165 560Z"  horiz-adv-x="330" vert-adv-y="1000"  />

      
      <glyph glyph-name="uni6b" unicode="&#x6b;" d="M40 15L100 30L100 670L40 685L40 700L170 700Q260 700 260 610L260 260L445 455L370 485L370 500L560 500L560 485L480 455L365 335L560 30L610 15L610 0L480 0Q432 0 402 21Q372 42 345 85L260 220L260 30L320 15L320 0L40 0L40 15Z"  horiz-adv-x="600" vert-adv-y="1000"  />

      
      <glyph glyph-name="uni6c" unicode="&#x6c;" d="M40 15L100 30L100 670L40 685L40 700L170 700Q260 700 260 610L260 30L320 15L320 0L40 0L40 15Z"  horiz-adv-x="340" vert-adv-y="1000"  />

      
      <glyph glyph-name="uni6d" unicode="&#x6d;" d="M40 15L100 30L100 470L40 485L40 500L130 500Q189 500 223 462Q236 447 245 425Q260 453 277 470Q322 515 380 515Q438 515 482 489.50Q526 464 550 420Q565 449 582 467Q628 515 685 515Q738 515 780.50 493Q823 471 846.50 433Q870 395 870 350L870 30L930 15L930 0L800 0Q710 0 710 90L710 350Q710 415 690 447.50Q670 480 645 480Q616 480 586 440Q574 421 565 400L565 30L625 15L625 0L345 0L345 15L405 30L405 350Q405 415 385 447.50Q365 480 340 480Q311 480 281 440Q269 421 260 400L260 30L320 15L320 0L40 0L40 15Z"  horiz-adv-x="950" vert-adv-y="1000"  />

      
      <glyph glyph-name="uni6e" unicode="&#x6e;" d="M40 15L100 30L100 470L40 485L40 500L130 500Q189 500 223 462Q236 447 245 425Q259 451 278 470Q323 515 390 515Q446 515 490.50 491.50Q535 468 560 430Q585 392 585 350L585 30L645 15L645 0L515 0Q425 0 425 90L425 350Q425 413 402.50 446.50Q380 480 350 480Q312 480 282 440Q269 423 260 400L260 30L320 15L320 0L40 0L40 15Z"  horiz-adv-x="665" vert-adv-y="1000"  />

      
      <glyph glyph-name="uni6f" unicode="&#x6f;" d="M305-15Q181-15 110.50 55.50Q40 126 40 250Q40 374 110.50 444.50Q181 515 305 515Q429 515 499.50 444.50Q570 374 570 250Q570 126 499.50 55.50Q429-15 305-15M305 5Q345 5 372.50 61Q400 117 400 250Q400 383 372.50 439Q345 495 305 495Q265 495 237.50 439Q210 383 210 250Q210 117 237.50 61Q265 5 305 5Z"  horiz-adv-x="610" vert-adv-y="1000"  />

      
      <glyph glyph-name="uni70" unicode="&#x70;" d="M30-185L90-170L90 470L30 485L30 500L120 500Q179 500 213 462Q226 447 235 425Q248 451 268 470Q313 515 380 515Q439 515 485 484.50Q531 454 558 394.50Q585 335 585 250Q585 122 525.50 53.50Q466-15 365-15Q317-15 281 5Q266 12 250 25L250-170L310-185L310-200L30-200L30-185M325 15Q368 15 391.50 65Q415 115 415 250Q415 379 393.50 429.50Q372 480 340 480Q302 480 272 440Q259 423 250 400L250 55Q264 41 272 35Q299 15 325 15Z"  horiz-adv-x="625" vert-adv-y="1000"  />

      
      <glyph glyph-name="uni71" unicode="&#x71;" d="M315-185L375-170L375 25Q359 12 344 5Q308-15 260-15Q159-15 99.50 53.50Q40 122 40 250Q40 335 67 394.50Q94 454 140 484.50Q186 515 245 515Q312 515 357 470Q376 451 390 425Q397 447 414 465Q452 505 525 505L535 505L535-170L595-185L595-200L315-200L315-185M300 15Q325 15 352 35Q364 44 375 55L375 400Q363 425 352 440Q322 480 285 480Q253 480 231.50 429.50Q210 379 210 250Q210 115 233.50 65Q257 15 300 15Z"  horiz-adv-x="615" vert-adv-y="1000"  />

      
      <glyph glyph-name="uni72" unicode="&#x72;" d="M40 15L100 30L100 470L40 485L40 500L130 500Q189 500 223 462Q236 447 245 425Q260 447 282 465Q332 505 394 505Q447 505 473.50 480.50Q500 456 500 410Q500 376 479.50 355.50Q459 335 425 335Q411 335 397 337L385 340L385 480Q334 480 292 440Q272 420 260 400L260 30L320 15L320 0L40 0L40 15Z"  horiz-adv-x="505" vert-adv-y="1000"  />

      
      <glyph glyph-name="uni73" unicode="&#x73;" d="M275-15Q213-15 164 12Q140 25 125 40Q109 18 90 6Q81 0 70-5L45-5L45 165L85 165Q98 123 123 87Q176 10 255 10Q297 10 318.50 30.50Q340 51 340 90Q340 123 310.50 145.50Q281 168 218 201Q164 228 130.50 249.50Q97 271 73.50 303.50Q50 336 50 380Q50 440 101.50 477.50Q153 515 260 515Q313 515 358 487Q380 474 396 460Q409 478 431 494Q448 504 451 505L476 505L476 335L436 335Q421 378 399 412Q349 490 280 490Q253 490 234 470Q215 450 215 420Q215 382 247 356.50Q279 331 344 298Q397 271 428.50 250.50Q460 230 482.50 200Q505 170 505 130Q505-15 275-15Z"  horiz-adv-x="540" vert-adv-y="1000"  />

      
      <glyph glyph-name="uni74" unicode="&#x74;" d="M300-15Q234-15 185.50 9Q137 33 111 75Q85 117 85 170L85 475L15 475L15 500L85 500L85 550Q85 640 175 640L245 640L245 500L385 500L385 475L245 475L245 170Q245 78 264 44Q283 10 320 10Q356 10 383 45Q410 80 410 140L435 140Q435 66 398 25.50Q361-15 300-15Z"  horiz-adv-x="450" vert-adv-y="1000"  />

      
      <glyph glyph-name="uni75" unicode="&#x75;" d="M280-15Q224-15 179.50 8.50Q135 32 110 70Q85 108 85 150L85 470L25 485L25 500L155 500Q245 500 245 410L245 150Q245 87 267.50 53.50Q290 20 320 20Q357 20 387 60Q398 75 410 100L410 470L350 485L350 500L630 500L630 485L570 470L570-5L560-5Q487-5 449 35Q432 53 425 75Q411 50 392 30Q347-15 280-15Z"  horiz-adv-x="650" vert-adv-y="1000"  />

      
      <glyph glyph-name="uni76" unicode="&#x76;" d="M30 470L-20 485L-20 500L105 500Q157 500 187.50 478.50Q218 457 240 415L359 184L470 455L395 485L395 500L580 500L580 485L500 455L310-10L280-10L30 470Z"  horiz-adv-x="560" vert-adv-y="1000"  />

      
      <glyph glyph-name="uni77" unicode="&#x77;" d="M30 470L-20 485L-20 500L95 500Q148 500 179 478Q210 456 230 415L340 185L397 331L330 470L280 485L280 500L395 500Q448 500 479 478Q510 456 530 415L640 185L745 455L670 485L670 500L855 500L855 485L775 455L590-10L560-10L412 298L290-10L260-10L30 470Z"  horiz-adv-x="835" vert-adv-y="1000"  />

      
      <glyph glyph-name="uni78" unicode="&#x78;" d="M10 15L90 45L214 204L45 470L-5 485L-5 500L130 500Q178 500 208 478.50Q238 457 265 415L316 334L410 455L335 485L335 500L525 500L525 485L445 455L331 310L510 30L560 15L560 0L425 0Q377 0 347 21Q317 42 290 85L230 179L125 45L200 15L200 0L10 0L10 15Z"  horiz-adv-x="555" vert-adv-y="1000"  />

      
      <glyph glyph-name="uni79" unicode="&#x79;" d="M150-215Q105-215 80-191Q55-167 55-125Q55-87 75.50-66Q96-45 130-45Q138-45 146-46.50Q154-48 157-48L170-50L170-185Q199-180 221-153Q243-126 270-60L290-10L30 470L-20 485L-20 500L105 500Q157 500 187.50 478.50Q218 457 240 415L365 184L470 455L395 485L395 500L580 500L580 485L500 455L300-60Q268-142 232-178.50Q196-215 150-215Z"  horiz-adv-x="560" vert-adv-y="1000"  />

      
      <glyph glyph-name="uni7a" unicode="&#x7a;" d="M40 25L325 475L145 475Q145 420 112 364Q99 343 80 325L50 325L50 500L505 500L505 475L220 25L410 25Q410 82 442 136Q456 159 475 175L505 175L505 0L40 0L40 25Z"  horiz-adv-x="545" vert-adv-y="1000"  />

      
      <glyph glyph-name="uni7b" unicode="&#x7b;" d="M300-220Q240-220 195.50-199.50Q151-179 128-145Q105-111 105-70L105 135Q105 186 85 210.50Q65 235 30 235L30 265Q65 265 85 289.50Q105 314 105 365L105 570Q105 611 128 645Q151 679 195.50 699.50Q240 720 300 720L360 720L360 695L350 695Q311 695 288 668.50Q265 642 265 590L265 405Q265 311 185 271Q151 253 105 250Q151 247 185 229Q265 189 265 95L265-90Q265-142 288-168.50Q311-195 350-195L360-195L360-220L300-220Z"  horiz-adv-x="370" vert-adv-y="1000"  />

      
      <glyph glyph-name="uni7c" unicode="&#x7c;" d="M85-200L85 700L140 700L140-200L85-200Z"  horiz-adv-x="225" vert-adv-y="1000"  />

      
      <glyph glyph-name="uni7d" unicode="&#x7d;" d="M10-195L20-195Q59-195 82-168.50Q105-142 105-90L105 95Q105 189 185 229Q219 247 265 250Q219 253 185 271Q105 311 105 405L105 590Q105 642 82 668.50Q59 695 20 695L10 695L10 720L70 720Q130 720 174.50 699.50Q219 679 242 645Q265 611 265 570L265 365Q265 314 285 289.50Q305 265 340 265L340 235Q305 235 285 210.50Q265 186 265 135L265-70Q265-111 242-145Q219-179 174.50-199.50Q130-220 70-220L10-220L10-195Z"  horiz-adv-x="370" vert-adv-y="1000"  />

      
      <glyph glyph-name="uni7e" unicode="&#x7e;" d="M30 235Q30 329 66 374.50Q102 420 165 420Q198 420 223.50 410Q249 400 282 380Q313 362 334 353.50Q355 345 380 345Q413 345 436.50 367.50Q460 390 460 420L485 420Q485 325 449.50 280Q414 235 350 235Q317 235 293 245Q269 255 236 274Q204 293 183 301.50Q162 310 135 310Q102 310 78.50 287.50Q55 265 55 235L30 235Z"  horiz-adv-x="515" vert-adv-y="1000"  />

      
      <glyph glyph-name="unia1" unicode="&#xa1;" d="M155 350Q125 350 102.50 373.50Q80 397 80 430Q80 463 102.50 486.50Q125 510 155 510Q185 510 207.50 486.50Q230 463 230 430Q230 397 207.50 373.50Q185 350 155 350M155-215Q115-215 87.50-183.50Q60-152 60-100L140 285L170 285L250-100Q250-152 222.50-183.50Q195-215 155-215Z"  horiz-adv-x="310" vert-adv-y="1000"  />

      
      <glyph glyph-name="unia2" unicode="&#xa2;" d="M300-15Q175-12 107.50 57.50Q40 127 40 250Q40 371 108.50 441.50Q177 512 300 515L300 580L330 580L330 514Q411 510 453 479Q495 448 495 405Q495 371 474.50 350.50Q454 330 420 330Q406 330 392 332L380 335L380 485L366 490Q351 495 330 495L330 10Q369 10 402.50 28.50Q436 47 455.50 77.50Q475 108 475 140L500 140Q500 101 479 67.50Q458 34 419 12Q380-10 330-14L330-80L300-80L300-15M300 491Q257 481 233.50 424Q210 367 210 250Q210 135 233.50 80.50Q257 26 300 13L300 491Z"  horiz-adv-x="530" vert-adv-y="1000"  />

      
      <glyph glyph-name="unia3" unicode="&#xa3;" d="M35 24Q68 28 87 60.50Q106 93 110 170L118 350L45 350L45 380L119 380L125 510Q130 606 189 660.50Q248 715 355 715Q446 715 488 684Q530 653 530 606Q530 572 509.50 551.50Q489 531 455 531Q441 531 427 533L415 536L415 686L406 690Q394 695 375 695Q337 695 316.50 655Q296 615 290 510L284 380L460 380L460 350L283 350L275 170Q271 105 226 73Q207 60 180 55L475 55Q482 109 509 145Q520 162 535 175L565 175L565 0L35 0L35 24Z"  horiz-adv-x="600" vert-adv-y="1000"  />

      
      <glyph glyph-name="unia4" unicode="&#xa4;" d="M65 15L125 30L125 175L50 175L50 205L125 205L125 270L50 270L50 300L125 300L125 670L65 685L65 700L345 700Q511 700 583 645.50Q655 591 655 485Q655 379 583 324.50Q511 270 345 270L290 270L290 205L540 205L540 175L290 175L290 30L350 15L350 0L65 0L65 15M345 300Q408 300 446.50 347.50Q485 395 485 485Q485 578 446.50 626.50Q408 675 345 675L290 675L290 300L345 300Z"  horiz-adv-x="690" vert-adv-y="1000"  />

      
      <glyph glyph-name="unia5" unicode="&#xa5;" d="M195 15L255 30L255 190L130 190L130 220L255 220L255 260L245 280L130 280L130 310L230 310L50 670L0 685L0 700L125 700Q177 700 208.50 678Q240 656 260 615L408 322L560 655L485 685L485 700L675 700L675 685L595 655L437 310L545 310L545 280L424 280L420 270L420 220L545 220L545 190L420 190L420 30L480 15L480 0L195 0L195 15Z"  horiz-adv-x="665" vert-adv-y="1000"  />

      
      <glyph glyph-name="unia6" unicode="&#xa6;" d="M85 340L85 700L140 700L140 340L85 340M85-200L85 160L140 160L140-200L85-200Z"  horiz-adv-x="225" vert-adv-y="1000"  />

      
      <glyph glyph-name="unia7" unicode="&#xa7;" d="M230-210Q138-210 91.50-178Q45-146 45-100Q45-66 65.50-45.50Q86-25 120-25Q128-25 136-26.50Q144-28 147-28L160-30L160-180Q167-184 174-185Q191-190 210-190Q260-190 287.50-160.50Q315-131 315-75Q315-44 298-19.50Q281 5 255.50 22.50Q230 40 187 63Q138 90 109.50 110.50Q81 131 60.50 162Q40 193 40 235Q40 280 74 316.50Q108 353 175 370Q121 405 90.50 447Q60 489 60 550Q60 621 117 665.50Q174 710 285 710Q342 710 381.50 694.50Q421 679 440.50 654Q460 629 460 600Q460 566 439.50 545.50Q419 525 385 525Q371 525 357 527L345 530L345 685L332 687Q329 687 321 688.50Q313 690 305 690Q273 690 249 660.50Q225 631 225 580Q225 534 255 503.50Q285 473 345 437Q389 410 416 388.50Q443 367 461.50 336.50Q480 306 480 265Q480 223 446 188.50Q412 154 345 140Q408 105 444 63.50Q480 22 480-45Q480-121 419-165.50Q358-210 230-210M325 164Q330 182 330 215Q330 268 265 317Q236 339 200 355Q196 350 195 341Q190 323 190 290Q190 235 255 188Q287 165 320 150L325 164Z"  horiz-adv-x="520" vert-adv-y="1000"  />

      
      <glyph glyph-name="unia8" unicode="&#xa8;" d="M90 560Q60 560 40 580Q20 600 20 630Q20 660 40 680Q60 700 90 700Q120 700 140 680Q160 660 160 630Q160 600 140 580Q120 560 90 560M275 560Q245 560 225 580Q205 600 205 630Q205 660 225 680Q245 700 275 700Q305 700 325 680Q345 660 345 630Q345 600 325 580Q305 560 275 560Z"  horiz-adv-x="365" vert-adv-y="1000"  />

      
      <glyph glyph-name="unia9" unicode="&#xa9;" d="M420-40Q316-40 229 11.50Q142 63 91 152.50Q40 242 40 350Q40 458 91 547.50Q142 637 229 688.50Q316 740 420 740Q524 740 611 688.50Q698 637 749 547.50Q800 458 800 350Q800 242 749 152.50Q698 63 611 11.50Q524-40 420-40M420-10Q517-10 595.50 36Q674 82 719.50 164Q765 246 765 350Q765 454 719.50 536Q674 618 595.50 664Q517 710 420 710Q323 710 244.50 664Q166 618 120.50 536Q75 454 75 350Q75 246 120.50 164Q166 82 244.50 36Q323-10 420-10M445 135Q340 135 282.50 191.50Q225 248 225 350Q225 452 281.50 508.50Q338 565 440 565Q518 565 559 536Q600 507 600 465Q600 435 582.50 417.50Q565 400 535 400Q521 400 507 402L495 405L495 540L485 542Q482 542 475 543.50Q468 545 460 545Q421 545 393 497.50Q365 450 365 350Q365 252 393.50 206Q422 160 465 160Q513 160 546.50 192Q580 224 580 270L605 270Q605 235 585 204Q565 173 528 154Q491 135 445 135Z"  horiz-adv-x="840" vert-adv-y="1000"  />

      
      <glyph glyph-name="uniaa" unicode="&#xaa;" d="M155 360Q94 360 62 385Q30 410 30 450Q30 475 40 497Q45 509 50 515L109 530Q184 545 235 545L235 580Q235 640 219.50 665Q204 690 175 690Q167 690 159 688.50Q151 687 148 687L135 685L135 585L125 582Q111 580 100 580Q77 580 63.50 593.50Q50 607 50 630Q50 664 86 687Q122 710 195 710Q267 710 306 671Q345 632 345 560L345 395L385 385L385 370L325 370Q280 370 259 395Q251 404 245 420Q237 402 226 390Q196 360 155 360M185 385Q203 385 221 411Q230 423 235 438L235 525Q225 525 180 522L155 520Q152 516 147 503Q140 485 140 460Q140 425 154 405Q168 385 185 385Z"  horiz-adv-x="415" vert-adv-y="1000"  />

      
      <glyph glyph-name="uniab" unicode="&#xab;" d="M275 20L15 250L275 480L300 455L115 250L300 45L275 20M385 75L195 250L385 425L410 400L290 250L410 100L385 75Z"  horiz-adv-x="440" vert-adv-y="1000"  />

      
      <glyph glyph-name="uniac" unicode="&#xac;" d="M395 220L395 320L30 320L30 365L440 365L440 220L395 220Z"  horiz-adv-x="470" vert-adv-y="1000"  />

      
      <glyph glyph-name="uniad" unicode="&#xad;" d="M30 300L30 345L430 345L430 300L30 300Z"  horiz-adv-x="460" vert-adv-y="1000"  />

      
      <glyph glyph-name="uniae" unicode="&#xae;" d="M420-40Q316-40 229 11.50Q142 63 91 152.50Q40 242 40 350Q40 458 91 547.50Q142 637 229 688.50Q316 740 420 740Q524 740 611 688.50Q698 637 749 547.50Q800 458 800 350Q800 242 749 152.50Q698 63 611 11.50Q524-40 420-40M420-10Q517-10 595.50 36Q674 82 719.50 164Q765 246 765 350Q765 454 719.50 536Q674 618 595.50 664Q517 710 420 710Q323 710 244.50 664Q166 618 120.50 536Q75 454 75 350Q75 246 120.50 164Q166 82 244.50 36Q323-10 420-10M210 155L260 165L260 535L210 545L210 560L400 560Q520 560 570 528.50Q620 497 620 440Q620 376 550 350Q518 338 480 335Q500 333 518 326Q558 311 575 275L625 165L660 155L660 140L560 140Q524 140 500 157Q476 174 465 200L410 325L390 325L390 165L440 155L440 140L210 140L210 155M400 345Q439 345 459.50 369.50Q480 394 480 440Q480 484 457.50 509.50Q435 535 400 535L390 535L390 345L400 345Z"  horiz-adv-x="840" vert-adv-y="1000"  />

      
      <glyph glyph-name="uniaf" unicode="&#xaf;" d="M20 655L20 700L280 700L280 655L20 655Z"  horiz-adv-x="300" vert-adv-y="1000"  />

      
      <glyph glyph-name="unib0" unicode="&#xb0;" d="M185 400Q139 400 103.50 421Q68 442 49 477.50Q30 513 30 555Q30 597 49 632.50Q68 668 103.50 689Q139 710 185 710Q231 710 266.50 689Q302 668 321 632.50Q340 597 340 555Q340 513 321 477.50Q302 442 266.50 421Q231 400 185 400M185 450Q220 450 242.50 477Q265 504 265 555Q265 606 242.50 633Q220 660 185 660Q150 660 127.50 633Q105 606 105 555Q105 504 127.50 477Q150 450 185 450Z"  horiz-adv-x="370" vert-adv-y="1000"  />

      
      <glyph glyph-name="unib1" unicode="&#xb1;" d="M230 135L230 320L30 320L30 365L230 365L230 570L275 570L275 365L475 365L475 320L275 320L275 135L230 135M40 50L40 95L465 95L465 50L40 50Z"  horiz-adv-x="505" vert-adv-y="1000"  />

      
      <glyph glyph-name="unib2" unicode="&#xb2;" d="M30 400Q30 428 42.50 449.50Q55 471 72 485.50Q89 500 120 521Q163 549 184 571.50Q205 594 205 630Q205 655 189.50 672.50Q174 690 155 690Q147 690 139 688.50Q131 687 128 687L115 685L115 585L105 582Q91 580 80 580Q57 580 43.50 593.50Q30 607 30 630Q30 664 66 687Q102 710 175 710Q243 710 279 682Q315 654 315 610Q315 576 296 552.50Q277 529 249 514.50Q221 500 174 481Q129 463 102.50 449Q76 435 60 415L250 415Q253 441 272 472Q280 485 290 495L310 495L310 370L30 370L30 400Z"  horiz-adv-x="345" vert-adv-y="1000"  />

      
      <glyph glyph-name="unib3" unicode="&#xb3;" d="M175 360Q102 360 66 383Q30 406 30 440Q30 463 43.50 476.50Q57 490 80 490Q88 490 95 488.50Q102 487 105 487L115 485L115 385L128 382Q144 380 155 380Q185 380 202.50 399.50Q220 419 220 455Q220 492 203.50 511Q187 530 160 530L134 530L134 550L160 550Q177 550 191 569Q205 588 205 620Q205 652 191 671Q177 690 160 690Q152 690 144 688.50Q136 687 133 687L120 685L120 585L110 582Q96 580 85 580Q62 580 48.50 593.50Q35 607 35 630Q35 664 71 687Q107 710 180 710Q244 710 279.50 683.50Q315 657 315 620Q315 594 300 578Q285 562 260 552Q234 541 205 540Q242 537 267 527Q330 505 330 455Q330 414 291 387Q252 360 175 360Z"  horiz-adv-x="360" vert-adv-y="1000"  />

      
      <glyph glyph-name="unib4" unicode="&#xb4;" d="M30 550L70 700L200 700L65 550L30 550Z"  horiz-adv-x="220" vert-adv-y="1000"  />

      
      <glyph glyph-name="unib5" unicode="&#xb5;" d="M30-185L90-170L90 470L30 485L30 500L160 500Q250 500 250 410L250 160Q250 97 272.50 63.50Q295 30 325 30Q362 30 392 70Q403 85 415 110L415 470L355 485L355 500L635 500L635 485L575 470L575-5L565-5Q491-5 454 40Q438 60 430 85Q421 59 406 40Q373-5 325-5Q292-5 269 12Q256 21 250 30L250-110Q250-200 160-200L30-200L30-185Z"  horiz-adv-x="655" vert-adv-y="1000"  />

      
      <glyph glyph-name="unib6" unicode="&#xb6;" d="M270 270Q154 270 94.50 326Q35 382 35 485Q35 588 94.50 644Q154 700 270 700L565 700L565 670L485 670L485-200L430-200L430 670L325 670L325-200L270-200L270 270Z"  horiz-adv-x="590" vert-adv-y="1000"  />

      
      <glyph glyph-name="unib7" unicode="&#xb7;" d="M140 270Q110 270 87.50 293.50Q65 317 65 350Q65 383 87.50 406.50Q110 430 140 430Q170 430 192.50 406.50Q215 383 215 350Q215 317 192.50 293.50Q170 270 140 270Z"  horiz-adv-x="280" vert-adv-y="1000"  />

      
      <glyph glyph-name="unib8" unicode="&#xb8;" d="M76-200Q59-200 37-198L20-195L20-165Q26-169 30-170Q42-175 56-175Q79-175 92.50-161.50Q106-148 106-125Q106-102 91.50-88.50Q77-75 51-75L51 0L86 0L86-50Q129-50 155-72Q181-94 181-125Q181-157 154-178.50Q127-200 76-200Z"  horiz-adv-x="201" vert-adv-y="1000"  />

      
      <glyph glyph-name="unib9" unicode="&#xb9;" d="M65 370L65 385L105 395L105 620L45 575L30 590L140 700L215 700L215 395L255 385L255 370L65 370Z"  horiz-adv-x="285" vert-adv-y="1000"  />

      
      <glyph glyph-name="uniba" unicode="&#xba;" d="M195 360Q148 360 110.50 382Q73 404 51.50 443.50Q30 483 30 535Q30 587 51.50 626.50Q73 666 110.50 688Q148 710 195 710Q242 710 279.50 688Q317 666 338.50 626.50Q360 587 360 535Q360 483 338.50 443.50Q317 404 279.50 382Q242 360 195 360M195 380Q218 380 234 415Q250 450 250 535Q250 620 234 655Q218 690 195 690Q172 690 156 655Q140 620 140 535Q140 450 156 415Q172 380 195 380Z"  horiz-adv-x="390" vert-adv-y="1000"  />

      
      <glyph glyph-name="unibb" unicode="&#xbb;" d="M165 20L140 45L325 250L140 455L165 480L425 250L165 20M55 75L30 100L150 250L30 400L55 425L245 250L55 75Z"  horiz-adv-x="440" vert-adv-y="1000"  />

      
      <glyph glyph-name="unibc" unicode="&#xbc;" d="M55 370L55 385L95 395L95 620L35 575L20 590L130 700L205 700L205 395L245 385L245 370L55 370M75 0L590 700L645 700L130 0L75 0M445 0L445 15L485 25L485 75L340 75L325 100L535 330L595 330L595 105L657 105L657 75L595 75L595 25L635 15L635 0L445 0M365 105L485 105L485 235L365 105Z"  horiz-adv-x="687" vert-adv-y="1000"  />

      
      <glyph glyph-name="unibd" unicode="&#xbd;" d="M55 370L55 385L95 395L95 620L35 575L20 590L130 700L205 700L205 395L245 385L245 370L55 370M65 0L580 700L635 700L120 0L65 0M390 30Q390 58 402.50 79.50Q415 101 432 115.50Q449 130 480 151Q523 179 544 201.50Q565 224 565 260Q565 285 549.50 302.50Q534 320 515 320Q507 320 499 318.50Q491 317 488 317L475 315L475 215L465 212Q451 210 440 210Q417 210 403.50 223.50Q390 237 390 260Q390 294 426 317Q462 340 535 340Q603 340 639 312Q675 284 675 240Q675 206 656 182.50Q637 159 609 144.50Q581 130 534 111Q489 93 462.50 79Q436 65 420 45L610 45Q613 71 632 102Q640 115 650 125L670 125L670 0L390 0L390 30Z"  horiz-adv-x="705" vert-adv-y="1000"  />

      
      <glyph glyph-name="unibe" unicode="&#xbe;" d="M175 360Q102 360 66 383Q30 406 30 440Q30 463 43.50 476.50Q57 490 80 490Q88 490 95 488.50Q102 487 105 487L115 485L115 385L128 382Q144 380 155 380Q185 380 202.50 399.50Q220 419 220 455Q220 492 203.50 511Q187 530 160 530L134 530L134 550L160 550Q177 550 191 569Q205 588 205 620Q205 652 191 671Q177 690 160 690Q152 690 144 688.50Q136 687 133 687L120 685L120 585L110 582Q96 580 85 580Q62 580 48.50 593.50Q35 607 35 630Q35 664 71 687Q107 710 180 710Q244 710 279.50 683.50Q315 657 315 620Q315 594 300 578Q285 562 260 552Q234 541 205 540Q242 537 267 527Q330 505 330 455Q330 414 291 387Q252 360 175 360M105 0L620 700L675 700L160 0L105 0M465 0L465 15L505 25L505 75L360 75L345 100L555 330L615 330L615 105L677 105L677 75L615 75L615 25L655 15L655 0L465 0M385 105L505 105L505 235L385 105Z"  horiz-adv-x="707" vert-adv-y="1000"  />

      
      <glyph glyph-name="unibf" unicode="&#xbf;" d="M315 350Q285 350 262.50 373.50Q240 397 240 430Q240 463 262.50 486.50Q285 510 315 510Q345 510 367.50 486.50Q390 463 390 430Q390 397 367.50 373.50Q345 350 315 350M330-215Q184-215 109.50-158Q35-101 35-10Q35 75 97.50 131Q160 187 285 205L290 285L330 285L335 190Q274 166 242 120Q210 74 210-10Q210-106 244.50-148Q279-190 350-190Q383-190 409-183Q429-176 430-175L430-15L442-13Q463-10 470-10Q504-10 524.50-30.50Q545-51 545-85Q545-117 520.50-147Q496-177 447.50-196Q399-215 330-215Z"  horiz-adv-x="560" vert-adv-y="1000"  />

      
      <glyph glyph-name="unic0" unicode="&#xc0;" d="M-20 15L60 45L335 710L365 710L650 30L700 15L700 0L580 0Q528 0 495 23.50Q462 47 446 85L395 205L156 205L90 45L165 15L165 0L-20 0L-20 15M166 230L385 230L275 493L166 230M339 750L204 900L334 900L374 750L339 750Z"  horiz-adv-x="680" vert-adv-y="1000"  />

      
      <glyph glyph-name="unic1" unicode="&#xc1;" d="M-20 15L60 45L335 710L365 710L650 30L700 15L700 0L580 0Q528 0 495 23.50Q462 47 446 85L395 205L156 205L90 45L165 15L165 0L-20 0L-20 15M166 230L385 230L275 493L166 230M322 750L362 900L492 900L357 750L322 750Z"  horiz-adv-x="680" vert-adv-y="1000"  />

      
      <glyph glyph-name="unic2" unicode="&#xc2;" d="M-20 15L60 45L335 710L365 710L650 30L700 15L700 0L580 0Q528 0 495 23.50Q462 47 446 85L395 205L156 205L90 45L165 15L165 0L-20 0L-20 15M166 230L385 230L275 493L166 230M205 750L350 915L495 750L460 750L350 820L240 750L205 750Z"  horiz-adv-x="680" vert-adv-y="1000"  />

      
      <glyph glyph-name="unic3" unicode="&#xc3;" d="M-20 15L60 45L335 710L365 710L650 30L700 15L700 0L580 0Q528 0 495 23.50Q462 47 446 85L395 205L156 205L90 45L165 15L165 0L-20 0L-20 15M166 230L385 230L275 493L166 230M397 780Q375 780 359 787.50Q343 795 324 809Q310 820 299.50 825Q289 830 277 830Q258 830 245 817Q232 804 232 785L212 785Q212 843 235.50 871.50Q259 900 302 900Q324 900 340 892.50Q356 885 375 871Q389 861 399.50 855.50Q410 850 422 850Q441 850 454 863Q467 876 467 895L487 895Q487 837 463.50 808.50Q440 780 397 780Z"  horiz-adv-x="680" vert-adv-y="1000"  />

      
      <glyph glyph-name="unic4" unicode="&#xc4;" d="M-20 15L60 45L335 710L365 710L650 30L700 15L700 0L580 0Q528 0 495 23.50Q462 47 446 85L395 205L156 205L90 45L165 15L165 0L-20 0L-20 15M166 230L385 230L275 493L166 230M257 760Q227 760 207 780Q187 800 187 830Q187 860 207 880Q227 900 257 900Q287 900 307 880Q327 860 327 830Q327 800 307 780Q287 760 257 760M442 760Q412 760 392 780Q372 800 372 830Q372 860 392 880Q412 900 442 900Q472 900 492 880Q512 860 512 830Q512 800 492 780Q472 760 442 760Z"  horiz-adv-x="680" vert-adv-y="1000"  />

      
      <glyph glyph-name="unic5" unicode="&#xc5;" d="M-20 15L60 45L335 710L365 710L650 30L700 15L700 0L580 0Q528 0 495 23.50Q462 47 446 85L395 205L156 205L90 45L165 15L165 0L-20 0L-20 15M166 230L385 230L275 493L166 230M350 750Q305 750 275 779Q245 808 245 850Q245 892 275 921Q305 950 350 950Q395 950 425 921Q455 892 455 850Q455 808 425 779Q395 750 350 750M350 785Q374 785 389.50 803Q405 821 405 850Q405 879 389.50 897Q374 915 350 915Q326 915 310.50 897Q295 879 295 850Q295 821 310.50 803Q326 785 350 785Z"  horiz-adv-x="680" vert-adv-y="1000"  />

      
      <glyph glyph-name="unic6" unicode="&#xc6;" d="M-30 15L50 45L416 700L930 700L930 520L900 520Q881 535 867 558Q835 612 835 675L630 675L630 360L735 360Q742 398 761 431Q769 446 780 460L810 460L810 235L780 235Q769 249 761 264Q742 297 735 335L630 335L630 25L855 25Q855 88 887 142Q901 165 920 180L950 180L950 0L405 0L405 15L465 30L465 265L208 265L86 45L161 15L161 0L-30 0L-30 15M223 290L465 290L465 675L438 675L223 290Z"  horiz-adv-x="991" vert-adv-y="1000"  />

      
      <glyph glyph-name="unic7" unicode="&#xc7;" d="M363-200Q346-200 324-198L307-195L307-165Q313-169 317-170Q329-175 343-175Q366-175 379.50-161.50Q393-148 393-125Q393-102 378.50-88.50Q364-75 338-75L338-12Q199 1 122 94Q45 187 45 350Q45 465 84.50 547.50Q124 630 195.50 672.50Q267 715 361 715Q418 715 476 682Q498 670 520 650Q537 676 555 691Q573 704 575 705L600 705L600 515L560 515Q547 563 521 602Q497 640 461.50 665Q426 690 380 690Q311 690 265.50 610Q220 530 220 350Q220 167 269.50 88.50Q319 10 405 10Q452 10 494.50 36.50Q537 63 563.50 107Q590 151 590 200L615 200Q615 143 584.50 93.50Q554 44 501.50 14.50Q449-15 385-15L373-15L373-50Q416-50 442-72Q468-94 468-125Q468-157 441-178.50Q414-200 363-200Z"  horiz-adv-x="650" vert-adv-y="1000"  />

      
      <glyph glyph-name="unic8" unicode="&#xc8;" d="M50 15L110 30L110 670L50 685L50 700L585 700L585 520L555 520Q536 535 522 558Q490 612 490 675L275 675L275 360L390 360Q397 398 416 431Q424 446 435 460L465 460L465 235L435 235Q424 249 416 264Q397 297 390 335L275 335L275 25L510 25Q510 88 542 142Q556 165 575 180L605 180L605 0L50 0L50 15M352 750L217 900L347 900L387 750L352 750Z"  horiz-adv-x="645" vert-adv-y="1000"  />

      
      <glyph glyph-name="unic9" unicode="&#xc9;" d="M50 15L110 30L110 670L50 685L50 700L585 700L585 520L555 520Q536 535 522 558Q490 612 490 675L275 675L275 360L390 360Q397 398 416 431Q424 446 435 460L465 460L465 235L435 235Q424 249 416 264Q397 297 390 335L275 335L275 25L510 25Q510 88 542 142Q556 165 575 180L605 180L605 0L50 0L50 15M335 750L375 900L505 900L370 750L335 750Z"  horiz-adv-x="645" vert-adv-y="1000"  />

      
      <glyph glyph-name="unica" unicode="&#xca;" d="M50 15L110 30L110 670L50 685L50 700L585 700L585 520L555 520Q536 535 522 558Q490 612 490 675L275 675L275 360L390 360Q397 398 416 431Q424 446 435 460L465 460L465 235L435 235Q424 249 416 264Q397 297 390 335L275 335L275 25L510 25Q510 88 542 142Q556 165 575 180L605 180L605 0L50 0L50 15M218 750L363 915L508 750L473 750L363 820L253 750L218 750Z"  horiz-adv-x="645" vert-adv-y="1000"  />

      
      <glyph glyph-name="unicb" unicode="&#xcb;" d="M50 15L110 30L110 670L50 685L50 700L585 700L585 520L555 520Q536 535 522 558Q490 612 490 675L275 675L275 360L390 360Q397 398 416 431Q424 446 435 460L465 460L465 235L435 235Q424 249 416 264Q397 297 390 335L275 335L275 25L510 25Q510 88 542 142Q556 165 575 180L605 180L605 0L50 0L50 15M270 760Q240 760 220 780Q200 800 200 830Q200 860 220 880Q240 900 270 900Q300 900 320 880Q340 860 340 830Q340 800 320 780Q300 760 270 760M455 760Q425 760 405 780Q385 800 385 830Q385 860 405 880Q425 900 455 900Q485 900 505 880Q525 860 525 830Q525 800 505 780Q485 760 455 760Z"  horiz-adv-x="645" vert-adv-y="1000"  />

      
      <glyph glyph-name="unicc" unicode="&#xcc;" d="M50 0L50 15L110 30L110 670L50 685L50 700L335 700L335 685L275 670L275 30L335 15L335 0L50 0M182 750L47 900L177 900L217 750L182 750Z"  horiz-adv-x="385" vert-adv-y="1000"  />

      
      <glyph glyph-name="unicd" unicode="&#xcd;" d="M50 0L50 15L110 30L110 670L50 685L50 700L335 700L335 685L275 670L275 30L335 15L335 0L50 0M165 750L205 900L335 900L200 750L165 750Z"  horiz-adv-x="385" vert-adv-y="1000"  />

      
      <glyph glyph-name="unice" unicode="&#xce;" d="M50 0L50 15L110 30L110 670L50 685L50 700L335 700L335 685L275 670L275 30L335 15L335 0L50 0M48 750L193 915L338 750L303 750L193 820L83 750L48 750Z"  horiz-adv-x="385" vert-adv-y="1000"  />

      
      <glyph glyph-name="unicf" unicode="&#xcf;" d="M50 0L50 15L110 30L110 670L50 685L50 700L335 700L335 685L275 670L275 30L335 15L335 0L50 0M100 760Q70 760 50 780Q30 800 30 830Q30 860 50 880Q70 900 100 900Q130 900 150 880Q170 860 170 830Q170 800 150 780Q130 760 100 760M285 760Q255 760 235 780Q215 800 215 830Q215 860 235 880Q255 900 285 900Q315 900 335 880Q355 860 355 830Q355 800 335 780Q315 760 285 760Z"  horiz-adv-x="385" vert-adv-y="1000"  />

      
      <glyph glyph-name="unid0" unicode="&#xd0;" d="M55 15L115 30L115 340L50 340L50 370L115 370L115 670L55 685L55 700L310 700Q489 700 584.50 608Q680 516 680 350Q680 184 584.50 92Q489 0 310 0L55 0L55 15M310 25Q403 25 454 100.50Q505 176 505 350Q505 524 454 599.50Q403 675 310 675L280 675L280 370L400 370L400 340L280 340L280 25L310 25Z"  horiz-adv-x="715" vert-adv-y="1000"  />

      
      <glyph glyph-name="unid1" unicode="&#xd1;" d="M140 530L140 45L220 15L220 0L30 0L30 15L110 45L110 665L40 685L40 700L145 700Q198 700 228 681Q258 662 285 630L605 255L605 655L525 685L525 700L715 700L715 685L635 655L635-15L605-15L140 530M417 780Q395 780 379 787.50Q363 795 344 809Q330 820 319.50 825Q309 830 297 830Q278 830 265 817Q252 804 252 785L232 785Q232 843 255.50 871.50Q279 900 322 900Q344 900 360 892.50Q376 885 395 871Q409 861 419.50 855.50Q430 850 442 850Q461 850 474 863Q487 876 487 895L507 895Q507 837 483.50 808.50Q460 780 417 780Z"  horiz-adv-x="740" vert-adv-y="1000"  />

      
      <glyph glyph-name="unid2" unicode="&#xd2;" d="M370-15Q272-15 198.50 27.50Q125 70 85 152Q45 234 45 350Q45 466 85 548Q125 630 198.50 672.50Q272 715 370 715Q468 715 541.50 672.50Q615 630 655 548Q695 466 695 350Q695 234 655 152Q615 70 541.50 27.50Q468-15 370-15M370 5Q409 5 442.50 38Q476 71 498 148Q520 225 520 350Q520 475 498 552Q476 629 442.50 662Q409 695 370 695Q331 695 297.50 662Q264 629 242 552Q220 475 220 350Q220 225 242 148Q264 71 297.50 38Q331 5 370 5M359 750L224 900L354 900L394 750L359 750Z"  horiz-adv-x="740" vert-adv-y="1000"  />

      
      <glyph glyph-name="unid3" unicode="&#xd3;" d="M370-15Q272-15 198.50 27.50Q125 70 85 152Q45 234 45 350Q45 466 85 548Q125 630 198.50 672.50Q272 715 370 715Q468 715 541.50 672.50Q615 630 655 548Q695 466 695 350Q695 234 655 152Q615 70 541.50 27.50Q468-15 370-15M370 5Q409 5 442.50 38Q476 71 498 148Q520 225 520 350Q520 475 498 552Q476 629 442.50 662Q409 695 370 695Q331 695 297.50 662Q264 629 242 552Q220 475 220 350Q220 225 242 148Q264 71 297.50 38Q331 5 370 5M342 750L382 900L512 900L377 750L342 750Z"  horiz-adv-x="740" vert-adv-y="1000"  />

      
      <glyph glyph-name="unid4" unicode="&#xd4;" d="M370-15Q272-15 198.50 27.50Q125 70 85 152Q45 234 45 350Q45 466 85 548Q125 630 198.50 672.50Q272 715 370 715Q468 715 541.50 672.50Q615 630 655 548Q695 466 695 350Q695 234 655 152Q615 70 541.50 27.50Q468-15 370-15M370 5Q409 5 442.50 38Q476 71 498 148Q520 225 520 350Q520 475 498 552Q476 629 442.50 662Q409 695 370 695Q331 695 297.50 662Q264 629 242 552Q220 475 220 350Q220 225 242 148Q264 71 297.50 38Q331 5 370 5M225 750L370 915L515 750L480 750L370 820L260 750L225 750Z"  horiz-adv-x="740" vert-adv-y="1000"  />

      
      <glyph glyph-name="unid5" unicode="&#xd5;" d="M370-15Q272-15 198.50 27.50Q125 70 85 152Q45 234 45 350Q45 466 85 548Q125 630 198.50 672.50Q272 715 370 715Q468 715 541.50 672.50Q615 630 655 548Q695 466 695 350Q695 234 655 152Q615 70 541.50 27.50Q468-15 370-15M370 5Q409 5 442.50 38Q476 71 498 148Q520 225 520 350Q520 475 498 552Q476 629 442.50 662Q409 695 370 695Q331 695 297.50 662Q264 629 242 552Q220 475 220 350Q220 225 242 148Q264 71 297.50 38Q331 5 370 5M417 780Q395 780 379 787.50Q363 795 344 809Q330 820 319.50 825Q309 830 297 830Q278 830 265 817Q252 804 252 785L232 785Q232 843 255.50 871.50Q279 900 322 900Q344 900 360 892.50Q376 885 395 871Q409 861 419.50 855.50Q430 850 442 850Q461 850 474 863Q487 876 487 895L507 895Q507 837 483.50 808.50Q460 780 417 780Z"  horiz-adv-x="740" vert-adv-y="1000"  />

      
      <glyph glyph-name="unid6" unicode="&#xd6;" d="M370-15Q272-15 198.50 27.50Q125 70 85 152Q45 234 45 350Q45 466 85 548Q125 630 198.50 672.50Q272 715 370 715Q468 715 541.50 672.50Q615 630 655 548Q695 466 695 350Q695 234 655 152Q615 70 541.50 27.50Q468-15 370-15M370 5Q409 5 442.50 38Q476 71 498 148Q520 225 520 350Q520 475 498 552Q476 629 442.50 662Q409 695 370 695Q331 695 297.50 662Q264 629 242 552Q220 475 220 350Q220 225 242 148Q264 71 297.50 38Q331 5 370 5M277 760Q247 760 227 780Q207 800 207 830Q207 860 227 880Q247 900 277 900Q307 900 327 880Q347 860 347 830Q347 800 327 780Q307 760 277 760M462 760Q432 760 412 780Q392 800 392 830Q392 860 412 880Q432 900 462 900Q492 900 512 880Q532 860 532 830Q532 800 512 780Q492 760 462 760Z"  horiz-adv-x="740" vert-adv-y="1000"  />

      
      <glyph glyph-name="unid7" unicode="&#xd7;" d="M62 167L30 198L171 340L30 481L62 513L203 372L344 513L376 481L235 340L376 198L344 167L203 308L62 167Z"  horiz-adv-x="406" vert-adv-y="1000"  />

      
      <glyph glyph-name="unid8" unicode="&#xd8;" d="M370-15Q246-15 163 56L120 0L85 0L142 75Q96 124 70.50 193Q45 262 45 350Q45 466 85 548Q125 630 198.50 672.50Q272 715 370 715Q494 715 577 644L620 700L655 700L597 624Q695 521 695 350Q695 234 655 152Q615 70 541.50 27.50Q468-15 370-15M500 543Q480 622 445 658.50Q410 695 370 695Q331 695 297.50 662Q264 629 242 552Q220 475 220 350Q220 257 232 192L500 543M370 5Q409 5 442.50 38Q476 71 498 148Q520 225 520 350Q520 433 508 507L239 156Q258 77 293.50 41Q329 5 370 5Z"  horiz-adv-x="740" vert-adv-y="1000"  />

      
      <glyph glyph-name="unid9" unicode="&#xd9;" d="M395-15Q247-15 171 54.50Q95 124 95 250L95 670L35 685L35 700L320 700L320 685L260 670L260 250Q260 121 300 65.50Q340 10 415 10Q461 10 502.50 39.50Q544 69 569.50 123.50Q595 178 595 250L595 655L515 685L515 700L705 700L705 685L625 655L625 250Q625 169 595 109Q565 49 513 17Q461-15 395-15M404 750L269 900L399 900L439 750L404 750Z"  horiz-adv-x="710" vert-adv-y="1000"  />

      
      <glyph glyph-name="unida" unicode="&#xda;" d="M395-15Q247-15 171 54.50Q95 124 95 250L95 670L35 685L35 700L320 700L320 685L260 670L260 250Q260 121 300 65.50Q340 10 415 10Q461 10 502.50 39.50Q544 69 569.50 123.50Q595 178 595 250L595 655L515 685L515 700L705 700L705 685L625 655L625 250Q625 169 595 109Q565 49 513 17Q461-15 395-15M387 750L427 900L557 900L422 750L387 750Z"  horiz-adv-x="710" vert-adv-y="1000"  />

      
      <glyph glyph-name="unidb" unicode="&#xdb;" d="M395-15Q247-15 171 54.50Q95 124 95 250L95 670L35 685L35 700L320 700L320 685L260 670L260 250Q260 121 300 65.50Q340 10 415 10Q461 10 502.50 39.50Q544 69 569.50 123.50Q595 178 595 250L595 655L515 685L515 700L705 700L705 685L625 655L625 250Q625 169 595 109Q565 49 513 17Q461-15 395-15M270 750L415 915L560 750L525 750L415 820L305 750L270 750Z"  horiz-adv-x="710" vert-adv-y="1000"  />

      
      <glyph glyph-name="unidc" unicode="&#xdc;" d="M395-15Q247-15 171 54.50Q95 124 95 250L95 670L35 685L35 700L320 700L320 685L260 670L260 250Q260 121 300 65.50Q340 10 415 10Q461 10 502.50 39.50Q544 69 569.50 123.50Q595 178 595 250L595 655L515 685L515 700L705 700L705 685L625 655L625 250Q625 169 595 109Q565 49 513 17Q461-15 395-15M322 760Q292 760 272 780Q252 800 252 830Q252 860 272 880Q292 900 322 900Q352 900 372 880Q392 860 392 830Q392 800 372 780Q352 760 322 760M507 760Q477 760 457 780Q437 800 437 830Q437 860 457 880Q477 900 507 900Q537 900 557 880Q577 860 577 830Q577 800 557 780Q537 760 507 760Z"  horiz-adv-x="710" vert-adv-y="1000"  />

      
      <glyph glyph-name="unidd" unicode="&#xdd;" d="M195 15L255 30L255 260L50 670L0 685L0 700L125 700Q177 700 208.50 678Q240 656 260 615L408 320L560 655L485 685L485 700L675 700L675 685L595 655L420 270L420 30L480 15L480 0L195 0L195 15M305 750L345 900L475 900L340 750L305 750Z"  horiz-adv-x="665" vert-adv-y="1000"  />

      
      <glyph glyph-name="unide" unicode="&#xde;" d="M50 15L110 30L110 670L50 685L50 700L335 700L335 685L275 670L275 610L320 610Q437 610 515.50 577Q594 544 632 485.50Q670 427 670 350Q670 273 632 214.50Q594 156 515.50 123Q437 90 320 90L275 90L275 30L335 15L335 0L50 0L50 15M320 115Q369 115 408.50 142Q448 169 471.50 222Q495 275 495 350Q495 425 471.50 478Q448 531 408.50 558Q369 585 320 585L275 585L275 115L320 115Z"  horiz-adv-x="700" vert-adv-y="1000"  />

      
      <glyph glyph-name="unidf" unicode="&#xdf;" d="M490-15Q446-15 414 7Q399 19 390 30Q376 10 355 1Q344-4 335-5L310-5L310 165L350 165Q363 124 382 87Q423 10 470 10Q487 10 498.50 27Q510 44 510 80Q510 122 488 149.50Q466 177 420 213Q387 239 367 258.50Q347 278 333.50 306Q320 334 320 370Q320 407 331 431.50Q342 456 364 485Q384 512 394.50 534.50Q405 557 405 590Q405 637 383.50 663.50Q362 690 330 690Q292 690 271 649Q250 608 250 500L250 0L30 0L30 15L90 30L90 500Q90 562 119 611Q148 660 202.50 687.50Q257 715 330 715Q389 715 436 693Q483 671 509 637Q535 603 535 570Q535 530 526 505.50Q517 481 500 452Q487 430 481 415.50Q475 401 475 380Q475 350 495 329Q515 308 558 278Q593 254 614 236Q635 218 650 191.50Q665 165 665 130Q665 64 620 24.50Q575-15 490-15Z"  horiz-adv-x="690" vert-adv-y="1000"  />

      
      <glyph glyph-name="unie0" unicode="&#xe0;" d="M235-15Q146-15 98 23Q50 61 50 120Q50 159 67 197Q74 215 85 230Q126 240 174 248Q282 266 365 270L365 300Q365 411 338 453Q311 495 255 495Q234 495 219 490L205 485L205 335L192 332Q176 330 165 330Q131 330 110.50 350.50Q90 371 90 405Q90 451 136.50 483Q183 515 275 515Q353 515 409.50 487.50Q466 460 495.50 411.50Q525 363 525 300L525 30L585 15L585 0L495 0Q435 0 402 37Q388 52 380 75Q366 50 347 30Q302-15 235-15M275 20Q312 20 342 60Q353 75 365 100L365 245Q319 245 277 240Q246 236 235 235Q230 224 225 205Q215 167 215 130Q215 74 232 47Q249 20 275 20M292 550L157 700L287 700L327 550L292 550Z"  horiz-adv-x="605" vert-adv-y="1000"  />

      
      <glyph glyph-name="unie1" unicode="&#xe1;" d="M235-15Q146-15 98 23Q50 61 50 120Q50 159 67 197Q74 215 85 230Q126 240 174 248Q282 266 365 270L365 300Q365 411 338 453Q311 495 255 495Q234 495 219 490L205 485L205 335L192 332Q176 330 165 330Q131 330 110.50 350.50Q90 371 90 405Q90 451 136.50 483Q183 515 275 515Q353 515 409.50 487.50Q466 460 495.50 411.50Q525 363 525 300L525 30L585 15L585 0L495 0Q435 0 402 37Q388 52 380 75Q366 50 347 30Q302-15 235-15M275 20Q312 20 342 60Q353 75 365 100L365 245Q319 245 277 240Q246 236 235 235Q230 224 225 205Q215 167 215 130Q215 74 232 47Q249 20 275 20M275 550L315 700L445 700L310 550L275 550Z"  horiz-adv-x="605" vert-adv-y="1000"  />

      
      <glyph glyph-name="unie2" unicode="&#xe2;" d="M235-15Q146-15 98 23Q50 61 50 120Q50 159 67 197Q74 215 85 230Q126 240 174 248Q282 266 365 270L365 300Q365 411 338 453Q311 495 255 495Q234 495 219 490L205 485L205 335L192 332Q176 330 165 330Q131 330 110.50 350.50Q90 371 90 405Q90 451 136.50 483Q183 515 275 515Q353 515 409.50 487.50Q466 460 495.50 411.50Q525 363 525 300L525 30L585 15L585 0L495 0Q435 0 402 37Q388 52 380 75Q366 50 347 30Q302-15 235-15M275 20Q312 20 342 60Q353 75 365 100L365 245Q319 245 277 240Q246 236 235 235Q230 224 225 205Q215 167 215 130Q215 74 232 47Q249 20 275 20M158 550L303 715L448 550L413 550L303 620L193 550L158 550Z"  horiz-adv-x="605" vert-adv-y="1000"  />

      
      <glyph glyph-name="unie3" unicode="&#xe3;" d="M235-15Q146-15 98 23Q50 61 50 120Q50 159 67 197Q74 215 85 230Q126 240 174 248Q282 266 365 270L365 300Q365 411 338 453Q311 495 255 495Q234 495 219 490L205 485L205 335L192 332Q176 330 165 330Q131 330 110.50 350.50Q90 371 90 405Q90 451 136.50 483Q183 515 275 515Q353 515 409.50 487.50Q466 460 495.50 411.50Q525 363 525 300L525 30L585 15L585 0L495 0Q435 0 402 37Q388 52 380 75Q366 50 347 30Q302-15 235-15M275 20Q312 20 342 60Q353 75 365 100L365 245Q319 245 277 240Q246 236 235 235Q230 224 225 205Q215 167 215 130Q215 74 232 47Q249 20 275 20M350 580Q328 580 312 587.50Q296 595 277 609Q263 620 252.50 625Q242 630 230 630Q211 630 198 617Q185 604 185 585L165 585Q165 643 188.50 671.50Q212 700 255 700Q277 700 293 692.50Q309 685 328 671Q342 661 352.50 655.50Q363 650 375 650Q394 650 407 663Q420 676 420 695L440 695Q440 637 416.50 608.50Q393 580 350 580Z"  horiz-adv-x="605" vert-adv-y="1000"  />

      
      <glyph glyph-name="unie4" unicode="&#xe4;" d="M235-15Q146-15 98 23Q50 61 50 120Q50 159 67 197Q74 215 85 230Q126 240 174 248Q282 266 365 270L365 300Q365 411 338 453Q311 495 255 495Q234 495 219 490L205 485L205 335L192 332Q176 330 165 330Q131 330 110.50 350.50Q90 371 90 405Q90 451 136.50 483Q183 515 275 515Q353 515 409.50 487.50Q466 460 495.50 411.50Q525 363 525 300L525 30L585 15L585 0L495 0Q435 0 402 37Q388 52 380 75Q366 50 347 30Q302-15 235-15M275 20Q312 20 342 60Q353 75 365 100L365 245Q319 245 277 240Q246 236 235 235Q230 224 225 205Q215 167 215 130Q215 74 232 47Q249 20 275 20M210 560Q180 560 160 580Q140 600 140 630Q140 660 160 680Q180 700 210 700Q240 700 260 680Q280 660 280 630Q280 600 260 580Q240 560 210 560M395 560Q365 560 345 580Q325 600 325 630Q325 660 345 680Q365 700 395 700Q425 700 445 680Q465 660 465 630Q465 600 445 580Q425 560 395 560Z"  horiz-adv-x="605" vert-adv-y="1000"  />

      
      <glyph glyph-name="unie5" unicode="&#xe5;" d="M235-15Q146-15 98 23Q50 61 50 120Q50 159 67 197Q74 215 85 230Q126 240 174 248Q282 266 365 270L365 300Q365 411 338 453Q311 495 255 495Q234 495 219 490L205 485L205 335L192 332Q176 330 165 330Q131 330 110.50 350.50Q90 371 90 405Q90 451 136.50 483Q183 515 275 515Q353 515 409.50 487.50Q466 460 495.50 411.50Q525 363 525 300L525 30L585 15L585 0L495 0Q435 0 402 37Q388 52 380 75Q366 50 347 30Q302-15 235-15M275 20Q312 20 342 60Q353 75 365 100L365 245Q319 245 277 240Q246 236 235 235Q230 224 225 205Q215 167 215 130Q215 74 232 47Q249 20 275 20M303 550Q258 550 228 579Q198 608 198 650Q198 692 228 721Q258 750 303 750Q348 750 378 721Q408 692 408 650Q408 608 378 579Q348 550 303 550M303 585Q327 585 342.50 603Q358 621 358 650Q358 679 342.50 697Q327 715 303 715Q279 715 263.50 697Q248 679 248 650Q248 621 263.50 603Q279 585 303 585Z"  horiz-adv-x="605" vert-adv-y="1000"  />

      
      <glyph glyph-name="unie6" unicode="&#xe6;" d="M255-15Q152-15 101 22.50Q50 60 50 120Q50 156 67 192Q74 206 85 220Q126 230 174 238Q282 256 365 260L365 300Q365 411 338 453Q311 495 255 495Q234 495 219 490L205 485L205 335L192 332Q176 330 165 330Q131 330 110.50 350.50Q90 371 90 405Q90 451 136.50 483Q183 515 275 515Q356 515 411 470Q435 450 450 425Q463 449 487 470Q540 515 615 515Q683 515 735 488Q787 461 816 415.50Q845 370 845 315Q845 294 840 279L835 265Q792 256 742 250Q637 235 530 235L530 213Q532 102 563 56Q594 10 650 10Q689 10 722.50 28.50Q756 47 775.50 77.50Q795 108 795 140L820 140Q820 100 796 64Q772 28 729 6.50Q686-15 630-15Q544-15 489 32Q463 53 450 80Q428 52 401 32Q336-15 255-15M530 260Q594 260 634 265Q651 266 670 270Q671 277 675 291Q680 311 680 335Q680 418 658 456.50Q636 495 605 495Q573 495 552.50 445.50Q532 396 530 265L530 260M275 10Q317 10 346 57Q357 76 365 105L365 235Q319 235 277 230Q246 226 235 225Q230 214 225 195Q215 157 215 120Q215 64 232 37Q249 10 275 10Z"  horiz-adv-x="880" vert-adv-y="1000"  />

      
      <glyph glyph-name="unie7" unicode="&#xe7;" d="M295-200Q278-200 256-198L239-195L239-165Q245-169 249-170Q261-175 275-175Q298-175 311.50-161.50Q325-148 325-125Q325-102 310.50-88.50Q296-75 270-75L270-13Q161-3 100.50 66.50Q40 136 40 250Q40 374 111 444.50Q182 515 310 515Q402 515 448.50 483Q495 451 495 405Q495 371 474.50 350.50Q454 330 420 330Q406 330 392 332L380 335L380 485L366 490Q351 495 330 495Q273 495 241.50 441Q210 387 210 250Q210 117 241.50 63.50Q273 10 330 10Q369 10 402.50 28.50Q436 47 455.50 77.50Q475 108 475 140L500 140Q500 100 476 64Q452 28 409 6.50Q366-15 310-15L305-15L305-50Q348-50 374-72Q400-94 400-125Q400-157 373-178.50Q346-200 295-200Z"  horiz-adv-x="530" vert-adv-y="1000"  />

      
      <glyph glyph-name="unie8" unicode="&#xe8;" d="M310-15Q182-15 111 55.50Q40 126 40 250Q40 331 71 391Q102 451 157.50 483Q213 515 285 515Q357 515 411.50 488Q466 461 495.50 415.50Q525 370 525 315Q525 290 520 272L515 255Q472 246 422 240Q317 225 210 225Q210 109 242 59.50Q274 10 330 10Q369 10 402.50 28.50Q436 47 455.50 77.50Q475 108 475 140L500 140Q500 100 476 64Q452 28 409 6.50Q366-15 310-15M210 250Q274 250 314 255Q331 256 350 260Q351 265 355 282Q360 307 360 335Q360 418 338 456.50Q316 495 285 495Q210 495 210 250M269 550L134 700L264 700L304 550L269 550Z"  horiz-adv-x="560" vert-adv-y="1000"  />

      
      <glyph glyph-name="unie9" unicode="&#xe9;" d="M310-15Q182-15 111 55.50Q40 126 40 250Q40 331 71 391Q102 451 157.50 483Q213 515 285 515Q357 515 411.50 488Q466 461 495.50 415.50Q525 370 525 315Q525 290 520 272L515 255Q472 246 422 240Q317 225 210 225Q210 109 242 59.50Q274 10 330 10Q369 10 402.50 28.50Q436 47 455.50 77.50Q475 108 475 140L500 140Q500 100 476 64Q452 28 409 6.50Q366-15 310-15M210 250Q274 250 314 255Q331 256 350 260Q351 265 355 282Q360 307 360 335Q360 418 338 456.50Q316 495 285 495Q210 495 210 250M252 550L292 700L422 700L287 550L252 550Z"  horiz-adv-x="560" vert-adv-y="1000"  />

      
      <glyph glyph-name="uniea" unicode="&#xea;" d="M310-15Q182-15 111 55.50Q40 126 40 250Q40 331 71 391Q102 451 157.50 483Q213 515 285 515Q357 515 411.50 488Q466 461 495.50 415.50Q525 370 525 315Q525 290 520 272L515 255Q472 246 422 240Q317 225 210 225Q210 109 242 59.50Q274 10 330 10Q369 10 402.50 28.50Q436 47 455.50 77.50Q475 108 475 140L500 140Q500 100 476 64Q452 28 409 6.50Q366-15 310-15M210 250Q274 250 314 255Q331 256 350 260Q351 265 355 282Q360 307 360 335Q360 418 338 456.50Q316 495 285 495Q210 495 210 250M135 550L280 715L425 550L390 550L280 620L170 550L135 550Z"  horiz-adv-x="560" vert-adv-y="1000"  />

      
      <glyph glyph-name="unieb" unicode="&#xeb;" d="M310-15Q182-15 111 55.50Q40 126 40 250Q40 331 71 391Q102 451 157.50 483Q213 515 285 515Q357 515 411.50 488Q466 461 495.50 415.50Q525 370 525 315Q525 290 520 272L515 255Q472 246 422 240Q317 225 210 225Q210 109 242 59.50Q274 10 330 10Q369 10 402.50 28.50Q436 47 455.50 77.50Q475 108 475 140L500 140Q500 100 476 64Q452 28 409 6.50Q366-15 310-15M210 250Q274 250 314 255Q331 256 350 260Q351 265 355 282Q360 307 360 335Q360 418 338 456.50Q316 495 285 495Q210 495 210 250M187 560Q157 560 137 580Q117 600 117 630Q117 660 137 680Q157 700 187 700Q217 700 237 680Q257 660 257 630Q257 600 237 580Q217 560 187 560M372 560Q342 560 322 580Q302 600 302 630Q302 660 322 680Q342 700 372 700Q402 700 422 680Q442 660 442 630Q442 600 422 580Q402 560 372 560Z"  horiz-adv-x="560" vert-adv-y="1000"  />

      
      <glyph glyph-name="uniec" unicode="&#xec;" d="M40 15L100 30L100 470L40 485L40 500L170 500Q260 500 260 410L260 30L320 15L320 0L40 0L40 15M159 550L24 700L154 700L194 550L159 550Z"  horiz-adv-x="340" vert-adv-y="1000"  />

      
      <glyph glyph-name="unied" unicode="&#xed;" d="M40 15L100 30L100 470L40 485L40 500L170 500Q260 500 260 410L260 30L320 15L320 0L40 0L40 15M142 550L182 700L312 700L177 550L142 550Z"  horiz-adv-x="340" vert-adv-y="1000"  />

      
      <glyph glyph-name="uniee" unicode="&#xee;" d="M40 15L100 30L100 470L40 485L40 500L170 500Q260 500 260 410L260 30L320 15L320 0L40 0L40 15M25 550L170 715L315 550L280 550L170 620L60 550L25 550Z"  horiz-adv-x="340" vert-adv-y="1000"  />

      
      <glyph glyph-name="unief" unicode="&#xef;" d="M40 15L100 30L100 470L40 485L40 500L170 500Q260 500 260 410L260 30L320 15L320 0L40 0L40 15M77 560Q47 560 27 580Q7 600 7 630Q7 660 27 680Q47 700 77 700Q107 700 127 680Q147 660 147 630Q147 600 127 580Q107 560 77 560M262 560Q232 560 212 580Q192 600 192 630Q192 660 212 680Q232 700 262 700Q292 700 312 680Q332 660 332 630Q332 600 312 580Q292 560 262 560Z"  horiz-adv-x="340" vert-adv-y="1000"  />

      
      <glyph glyph-name="unif0" unicode="&#xf0;" d="M299-15Q218-15 158.50 16Q99 47 67 102.50Q35 158 35 230Q35 302 65 357.50Q95 413 149 444Q203 475 270 475Q327 475 373 437Q388 424 405 400Q401 466 379.50 515Q358 564 320 605L279 530L258 543L302 623Q233 680 137 680L137 700Q240 700 327 669L367 742L388 729L350 659Q454 613 509.50 515.50Q565 418 565 270Q565 132 495 58.50Q425-15 299-15M299 5Q339 5 367 57.50Q395 110 395 230L395 240Q395 352 365.50 403.50Q336 455 289 455Q270 455 250.50 433.50Q231 412 218 361.50Q205 311 205 230Q205 110 232.50 57.50Q260 5 299 5Z"  horiz-adv-x="605" vert-adv-y="1000"  />

      
      <glyph glyph-name="unif1" unicode="&#xf1;" d="M40 15L100 30L100 470L40 485L40 500L130 500Q189 500 223 462Q236 447 245 425Q259 451 278 470Q323 515 390 515Q446 515 490.50 491.50Q535 468 560 430Q585 392 585 350L585 30L645 15L645 0L515 0Q425 0 425 90L425 350Q425 413 402.50 446.50Q380 480 350 480Q312 480 282 440Q269 423 260 400L260 30L320 15L320 0L40 0L40 15M400 580Q378 580 362 587.50Q346 595 327 609Q313 620 302.50 625Q292 630 280 630Q261 630 248 617Q235 604 235 585L215 585Q215 643 238.50 671.50Q262 700 305 700Q327 700 343 692.50Q359 685 378 671Q392 661 402.50 655.50Q413 650 425 650Q444 650 457 663Q470 676 470 695L490 695Q490 637 466.50 608.50Q443 580 400 580Z"  horiz-adv-x="665" vert-adv-y="1000"  />

      
      <glyph glyph-name="unif2" unicode="&#xf2;" d="M305-15Q181-15 110.50 55.50Q40 126 40 250Q40 374 110.50 444.50Q181 515 305 515Q429 515 499.50 444.50Q570 374 570 250Q570 126 499.50 55.50Q429-15 305-15M305 5Q345 5 372.50 61Q400 117 400 250Q400 383 372.50 439Q345 495 305 495Q265 495 237.50 439Q210 383 210 250Q210 117 237.50 61Q265 5 305 5M294 550L159 700L289 700L329 550L294 550Z"  horiz-adv-x="610" vert-adv-y="1000"  />

      
      <glyph glyph-name="unif3" unicode="&#xf3;" d="M305-15Q181-15 110.50 55.50Q40 126 40 250Q40 374 110.50 444.50Q181 515 305 515Q429 515 499.50 444.50Q570 374 570 250Q570 126 499.50 55.50Q429-15 305-15M305 5Q345 5 372.50 61Q400 117 400 250Q400 383 372.50 439Q345 495 305 495Q265 495 237.50 439Q210 383 210 250Q210 117 237.50 61Q265 5 305 5M277 550L317 700L447 700L312 550L277 550Z"  horiz-adv-x="610" vert-adv-y="1000"  />

      
      <glyph glyph-name="unif4" unicode="&#xf4;" d="M305-15Q181-15 110.50 55.50Q40 126 40 250Q40 374 110.50 444.50Q181 515 305 515Q429 515 499.50 444.50Q570 374 570 250Q570 126 499.50 55.50Q429-15 305-15M305 5Q345 5 372.50 61Q400 117 400 250Q400 383 372.50 439Q345 495 305 495Q265 495 237.50 439Q210 383 210 250Q210 117 237.50 61Q265 5 305 5M160 550L305 715L450 550L415 550L305 620L195 550L160 550Z"  horiz-adv-x="610" vert-adv-y="1000"  />

      
      <glyph glyph-name="unif5" unicode="&#xf5;" d="M305-15Q181-15 110.50 55.50Q40 126 40 250Q40 374 110.50 444.50Q181 515 305 515Q429 515 499.50 444.50Q570 374 570 250Q570 126 499.50 55.50Q429-15 305-15M305 5Q345 5 372.50 61Q400 117 400 250Q400 383 372.50 439Q345 495 305 495Q265 495 237.50 439Q210 383 210 250Q210 117 237.50 61Q265 5 305 5M352 580Q330 580 314 587.50Q298 595 279 609Q265 620 254.50 625Q244 630 232 630Q213 630 200 617Q187 604 187 585L167 585Q167 643 190.50 671.50Q214 700 257 700Q279 700 295 692.50Q311 685 330 671Q344 661 354.50 655.50Q365 650 377 650Q396 650 409 663Q422 676 422 695L442 695Q442 637 418.50 608.50Q395 580 352 580Z"  horiz-adv-x="610" vert-adv-y="1000"  />

      
      <glyph glyph-name="unif6" unicode="&#xf6;" d="M305-15Q181-15 110.50 55.50Q40 126 40 250Q40 374 110.50 444.50Q181 515 305 515Q429 515 499.50 444.50Q570 374 570 250Q570 126 499.50 55.50Q429-15 305-15M305 5Q345 5 372.50 61Q400 117 400 250Q400 383 372.50 439Q345 495 305 495Q265 495 237.50 439Q210 383 210 250Q210 117 237.50 61Q265 5 305 5M212 560Q182 560 162 580Q142 600 142 630Q142 660 162 680Q182 700 212 700Q242 700 262 680Q282 660 282 630Q282 600 262 580Q242 560 212 560M397 560Q367 560 347 580Q327 600 327 630Q327 660 347 680Q367 700 397 700Q427 700 447 680Q467 660 467 630Q467 600 447 580Q427 560 397 560Z"  horiz-adv-x="610" vert-adv-y="1000"  />

      
      <glyph glyph-name="unif7" unicode="&#xf7;" d="M250 440Q220 440 197.50 462.50Q175 485 175 515Q175 545 197.50 567.50Q220 590 250 590Q280 590 302.50 567.50Q325 545 325 515Q325 485 302.50 462.50Q280 440 250 440M30 310L30 355L470 355L470 310L30 310M250 75Q220 75 197.50 97.50Q175 120 175 150Q175 180 197.50 202.50Q220 225 250 225Q280 225 302.50 202.50Q325 180 325 150Q325 120 302.50 97.50Q280 75 250 75Z"  horiz-adv-x="500" vert-adv-y="1000"  />

      
      <glyph glyph-name="unif8" unicode="&#xf8;" d="M305-15Q207-15 142 32L115 0L80 0L121 49Q40 127 40 250Q40 374 110.50 444.50Q181 515 305 515Q401 515 468 467L495 500L530 500L489 450Q527 415 548.50 364Q570 313 570 250Q570 126 499.50 55.50Q429-15 305-15M391 374Q380 438 356.50 466.50Q333 495 305 495Q265 495 237.50 439Q210 383 210 250Q210 197 214 161L391 374M305 5Q345 5 372.50 61Q400 117 400 250Q400 305 396 338L219 125Q230 60 253 32.50Q276 5 305 5Z"  horiz-adv-x="610" vert-adv-y="1000"  />

      
      <glyph glyph-name="unif9" unicode="&#xf9;" d="M280-15Q224-15 179.50 8.50Q135 32 110 70Q85 108 85 150L85 470L25 485L25 500L155 500Q245 500 245 410L245 150Q245 87 267.50 53.50Q290 20 320 20Q357 20 387 60Q398 75 410 100L410 470L350 485L350 500L630 500L630 485L570 470L570-5L560-5Q487-5 449 35Q432 53 425 75Q411 50 392 30Q347-15 280-15M314 550L179 700L309 700L349 550L314 550Z"  horiz-adv-x="650" vert-adv-y="1000"  />

      
      <glyph glyph-name="unifa" unicode="&#xfa;" d="M280-15Q224-15 179.50 8.50Q135 32 110 70Q85 108 85 150L85 470L25 485L25 500L155 500Q245 500 245 410L245 150Q245 87 267.50 53.50Q290 20 320 20Q357 20 387 60Q398 75 410 100L410 470L350 485L350 500L630 500L630 485L570 470L570-5L560-5Q487-5 449 35Q432 53 425 75Q411 50 392 30Q347-15 280-15M297 550L337 700L467 700L332 550L297 550Z"  horiz-adv-x="650" vert-adv-y="1000"  />

      
      <glyph glyph-name="unifb" unicode="&#xfb;" d="M280-15Q224-15 179.50 8.50Q135 32 110 70Q85 108 85 150L85 470L25 485L25 500L155 500Q245 500 245 410L245 150Q245 87 267.50 53.50Q290 20 320 20Q357 20 387 60Q398 75 410 100L410 470L350 485L350 500L630 500L630 485L570 470L570-5L560-5Q487-5 449 35Q432 53 425 75Q411 50 392 30Q347-15 280-15M180 550L325 715L470 550L435 550L325 620L215 550L180 550Z"  horiz-adv-x="650" vert-adv-y="1000"  />

      
      <glyph glyph-name="unifc" unicode="&#xfc;" d="M280-15Q224-15 179.50 8.50Q135 32 110 70Q85 108 85 150L85 470L25 485L25 500L155 500Q245 500 245 410L245 150Q245 87 267.50 53.50Q290 20 320 20Q357 20 387 60Q398 75 410 100L410 470L350 485L350 500L630 500L630 485L570 470L570-5L560-5Q487-5 449 35Q432 53 425 75Q411 50 392 30Q347-15 280-15M232 560Q202 560 182 580Q162 600 162 630Q162 660 182 680Q202 700 232 700Q262 700 282 680Q302 660 302 630Q302 600 282 580Q262 560 232 560M417 560Q387 560 367 580Q347 600 347 630Q347 660 367 680Q387 700 417 700Q447 700 467 680Q487 660 487 630Q487 600 467 580Q447 560 417 560Z"  horiz-adv-x="650" vert-adv-y="1000"  />

      
      <glyph glyph-name="unifd" unicode="&#xfd;" d="M150-215Q105-215 80-191Q55-167 55-125Q55-87 75.50-66Q96-45 130-45Q138-45 146-46.50Q154-48 157-48L170-50L170-185Q199-180 221-153Q243-126 270-60L290-10L30 470L-20 485L-20 500L105 500Q157 500 187.50 478.50Q218 457 240 415L365 184L470 455L395 485L395 500L580 500L580 485L500 455L300-60Q268-142 232-178.50Q196-215 150-215M252 550L292 700L422 700L287 550L252 550Z"  horiz-adv-x="560" vert-adv-y="1000"  />

      
      <glyph glyph-name="unife" unicode="&#xfe;" d="M30-185L90-170L90 670L30 685L30 700L160 700Q250 700 250 610L250 450Q264 469 283 482Q330 515 380 515Q439 515 485 484.50Q531 454 558 394.50Q585 335 585 250Q585 122 525.50 53.50Q466-15 365-15Q317-15 281 5Q266 12 250 25L250-170L310-185L310-200L30-200L30-185M325 15Q368 15 391.50 65Q415 115 415 250Q415 379 393.50 429.50Q372 480 340 480Q306 480 274 440Q260 421 250 400L250 55Q264 41 272 35Q299 15 325 15Z"  horiz-adv-x="625" vert-adv-y="1000"  />

      
      <glyph glyph-name="uniff" unicode="&#xff;" d="M150-215Q105-215 80-191Q55-167 55-125Q55-87 75.50-66Q96-45 130-45Q138-45 146-46.50Q154-48 157-48L170-50L170-185Q199-180 221-153Q243-126 270-60L290-10L30 470L-20 485L-20 500L105 500Q157 500 187.50 478.50Q218 457 240 415L365 184L470 455L395 485L395 500L580 500L580 485L500 455L300-60Q268-142 232-178.50Q196-215 150-215M187 560Q157 560 137 580Q117 600 117 630Q117 660 137 680Q157 700 187 700Q217 700 237 680Q257 660 257 630Q257 600 237 580Q217 560 187 560M372 560Q342 560 322 580Q302 600 302 630Q302 660 322 680Q342 700 372 700Q402 700 422 680Q442 660 442 630Q442 600 422 580Q402 560 372 560Z"  horiz-adv-x="560" vert-adv-y="1000"  />

      
      <glyph glyph-name="uni0100" unicode="&#x0100;" d="M-20 15L60 45L335 710L365 710L650 30L700 15L700 0L580 0Q528 0 495 23.50Q462 47 446 85L395 205L156 205L90 45L165 15L165 0L-20 0L-20 15M166 230L385 230L275 493L166 230M220 855L220 900L480 900L480 855L220 855Z"  horiz-adv-x="680" vert-adv-y="1000"  />

      
      <glyph glyph-name="uni0101" unicode="&#x0101;" d="M235-15Q146-15 98 23Q50 61 50 120Q50 159 67 197Q74 215 85 230Q126 240 174 248Q282 266 365 270L365 300Q365 411 338 453Q311 495 255 495Q234 495 219 490L205 485L205 335L192 332Q176 330 165 330Q131 330 110.50 350.50Q90 371 90 405Q90 451 136.50 483Q183 515 275 515Q353 515 409.50 487.50Q466 460 495.50 411.50Q525 363 525 300L525 30L585 15L585 0L495 0Q435 0 402 37Q388 52 380 75Q366 50 347 30Q302-15 235-15M275 20Q312 20 342 60Q353 75 365 100L365 245Q319 245 277 240Q246 236 235 235Q230 224 225 205Q215 167 215 130Q215 74 232 47Q249 20 275 20M173 655L173 700L433 700L433 655L173 655Z"  horiz-adv-x="605" vert-adv-y="1000"  />

      
      <glyph glyph-name="uni0102" unicode="&#x0102;" d="M-20 15L60 45L335 710L365 710L650 30L700 15L700 0L580 0Q528 0 495 23.50Q462 47 446 85L395 205L156 205L90 45L165 15L165 0L-20 0L-20 15M166 230L385 230L275 493L166 230M350 750Q273 750 236.50 774Q200 798 200 835Q200 861 217 878Q234 895 260 895Q262 895 283 892L295 890L295 780Q296 780 309.50 775Q323 770 350 770Q377 770 390.50 775Q404 780 405 780L405 890L417 892Q438 895 440 895Q466 895 483 878Q500 861 500 835Q500 798 463.50 774Q427 750 350 750Z"  horiz-adv-x="680" vert-adv-y="1000"  />

      
      <glyph glyph-name="uni0103" unicode="&#x0103;" d="M235-15Q146-15 98 23Q50 61 50 120Q50 159 67 197Q74 215 85 230Q126 240 174 248Q282 266 365 270L365 300Q365 411 338 453Q311 495 255 495Q234 495 219 490L205 485L205 335L192 332Q176 330 165 330Q131 330 110.50 350.50Q90 371 90 405Q90 451 136.50 483Q183 515 275 515Q353 515 409.50 487.50Q466 460 495.50 411.50Q525 363 525 300L525 30L585 15L585 0L495 0Q435 0 402 37Q388 52 380 75Q366 50 347 30Q302-15 235-15M275 20Q312 20 342 60Q353 75 365 100L365 245Q319 245 277 240Q246 236 235 235Q230 224 225 205Q215 167 215 130Q215 74 232 47Q249 20 275 20M303 550Q226 550 189.50 574Q153 598 153 635Q153 661 170 678Q187 695 213 695Q215 695 236 692L248 690L248 580Q249 580 262.50 575Q276 570 303 570Q330 570 343.50 575Q357 580 358 580L358 690L370 692Q391 695 393 695Q419 695 436 678Q453 661 453 635Q453 598 416.50 574Q380 550 303 550Z"  horiz-adv-x="605" vert-adv-y="1000"  />

      
      <glyph glyph-name="uni0104" unicode="&#x0104;" d="M625-190Q574-190 547-168.50Q520-147 520-115Q520-78 547.50-53.50Q575-29 594.50-21Q614-13 654 0L580 0Q528 0 495 23.50Q462 47 446 85L395 205L156 205L90 45L165 15L165 0L-20 0L-20 15L60 45L335 710L365 710L650 30L700 15L700 0Q672-14 652-31Q605-72 605-125Q605-165 645-165Q661-165 677-155Q684-151 690-145L690-175Q688-176 672-183Q654-190 625-190M166 230L385 230L275 493L166 230Z"  horiz-adv-x="680" vert-adv-y="1000"  />

      
      <glyph glyph-name="uni0105" unicode="&#x0105;" d="M510-190Q459-190 432-168.50Q405-147 405-115Q405-78 432.50-53.50Q460-29 479.50-21Q499-13 539 0L495 0Q438 0 412 26.50Q386 53 380 74Q380 69 362.50 46.50Q345 24 312.50 4.50Q280-15 235-15Q146-15 98 23Q50 61 50 120Q50 159 67 197Q74 215 85 230Q126 240 174 248Q282 266 365 270L365 300Q365 411 338 453Q311 495 255 495Q234 495 219 490L205 485L205 335L192 332Q176 330 165 330Q131 330 110.50 350.50Q90 371 90 405Q90 451 136.50 483Q183 515 275 515Q353 515 409.50 487.50Q466 460 495.50 411.50Q525 363 525 300L525 30L585 15L585 0Q557-14 537-31Q490-72 490-125Q490-165 530-165Q546-165 562-155Q570-150 575-145L575-175Q573-176 557-183Q539-190 510-190M275 20Q312 20 342 60Q353 75 365 100L365 245Q319 245 277 240Q246 236 235 235Q230 224 225 205Q215 167 215 130Q215 74 232 47Q249 20 275 20Z"  horiz-adv-x="605" vert-adv-y="1000"  />

      
      <glyph glyph-name="uni0106" unicode="&#x0106;" d="M385-15Q225-15 135 80Q45 175 45 350Q45 465 84.50 547.50Q124 630 195.50 672.50Q267 715 361 715Q418 715 476 682Q498 670 520 650Q537 676 555 691Q573 704 575 705L600 705L600 515L560 515Q547 563 521 602Q497 640 461.50 665Q426 690 380 690Q311 690 265.50 610Q220 530 220 350Q220 167 269.50 88.50Q319 10 405 10Q452 10 494.50 36.50Q537 63 563.50 107Q590 151 590 200L615 200Q615 143 584.50 93.50Q554 44 501.50 14.50Q449-15 385-15M337 750L377 900L507 900L372 750L337 750Z"  horiz-adv-x="650" vert-adv-y="1000"  />

      
      <glyph glyph-name="uni0107" unicode="&#x0107;" d="M310-15Q182-15 111 55.50Q40 126 40 250Q40 374 111 444.50Q182 515 310 515Q402 515 448.50 483Q495 451 495 405Q495 371 474.50 350.50Q454 330 420 330Q406 330 392 332L380 335L380 485L366 490Q351 495 330 495Q273 495 241.50 441Q210 387 210 250Q210 117 241.50 63.50Q273 10 330 10Q369 10 402.50 28.50Q436 47 455.50 77.50Q475 108 475 140L500 140Q500 100 476 64Q452 28 409 6.50Q366-15 310-15M287 550L327 700L457 700L322 550L287 550Z"  horiz-adv-x="530" vert-adv-y="1000"  />

      
      <glyph glyph-name="uni0108" unicode="&#x0108;" d="M385-15Q225-15 135 80Q45 175 45 350Q45 465 84.50 547.50Q124 630 195.50 672.50Q267 715 361 715Q418 715 476 682Q498 670 520 650Q537 676 555 691Q573 704 575 705L600 705L600 515L560 515Q547 563 521 602Q497 640 461.50 665Q426 690 380 690Q311 690 265.50 610Q220 530 220 350Q220 167 269.50 88.50Q319 10 405 10Q452 10 494.50 36.50Q537 63 563.50 107Q590 151 590 200L615 200Q615 143 584.50 93.50Q554 44 501.50 14.50Q449-15 385-15M220 750L365 915L510 750L475 750L365 820L255 750L220 750Z"  horiz-adv-x="650" vert-adv-y="1000"  />

      
      <glyph glyph-name="uni0109" unicode="&#x0109;" d="M310-15Q182-15 111 55.50Q40 126 40 250Q40 374 111 444.50Q182 515 310 515Q402 515 448.50 483Q495 451 495 405Q495 371 474.50 350.50Q454 330 420 330Q406 330 392 332L380 335L380 485L366 490Q351 495 330 495Q273 495 241.50 441Q210 387 210 250Q210 117 241.50 63.50Q273 10 330 10Q369 10 402.50 28.50Q436 47 455.50 77.50Q475 108 475 140L500 140Q500 100 476 64Q452 28 409 6.50Q366-15 310-15M170 550L315 715L460 550L425 550L315 620L205 550L170 550Z"  horiz-adv-x="530" vert-adv-y="1000"  />

      
      <glyph glyph-name="uni010A" unicode="&#x010A;" d="M385-15Q225-15 135 80Q45 175 45 350Q45 465 84.50 547.50Q124 630 195.50 672.50Q267 715 361 715Q418 715 476 682Q498 670 520 650Q537 676 555 691Q573 704 575 705L600 705L600 515L560 515Q547 563 521 602Q497 640 461.50 665Q426 690 380 690Q311 690 265.50 610Q220 530 220 350Q220 167 269.50 88.50Q319 10 405 10Q452 10 494.50 36.50Q537 63 563.50 107Q590 151 590 200L615 200Q615 143 584.50 93.50Q554 44 501.50 14.50Q449-15 385-15M365 760Q335 760 315 780Q295 800 295 830Q295 860 315 880Q335 900 365 900Q395 900 415 880Q435 860 435 830Q435 800 415 780Q395 760 365 760Z"  horiz-adv-x="650" vert-adv-y="1000"  />

      
      <glyph glyph-name="uni010B" unicode="&#x010B;" d="M310-15Q182-15 111 55.50Q40 126 40 250Q40 374 111 444.50Q182 515 310 515Q402 515 448.50 483Q495 451 495 405Q495 371 474.50 350.50Q454 330 420 330Q406 330 392 332L380 335L380 485L366 490Q351 495 330 495Q273 495 241.50 441Q210 387 210 250Q210 117 241.50 63.50Q273 10 330 10Q369 10 402.50 28.50Q436 47 455.50 77.50Q475 108 475 140L500 140Q500 100 476 64Q452 28 409 6.50Q366-15 310-15M315 560Q285 560 265 580Q245 600 245 630Q245 660 265 680Q285 700 315 700Q345 700 365 680Q385 660 385 630Q385 600 365 580Q345 560 315 560Z"  horiz-adv-x="530" vert-adv-y="1000"  />

      
      <glyph glyph-name="uni010C" unicode="&#x010C;" d="M385-15Q225-15 135 80Q45 175 45 350Q45 465 84.50 547.50Q124 630 195.50 672.50Q267 715 361 715Q418 715 476 682Q498 670 520 650Q537 676 555 691Q573 704 575 705L600 705L600 515L560 515Q547 563 521 602Q497 640 461.50 665Q426 690 380 690Q311 690 265.50 610Q220 530 220 350Q220 167 269.50 88.50Q319 10 405 10Q452 10 494.50 36.50Q537 63 563.50 107Q590 151 590 200L615 200Q615 143 584.50 93.50Q554 44 501.50 14.50Q449-15 385-15M220 915L255 915L365 845L475 915L510 915L365 750L220 915Z"  horiz-adv-x="650" vert-adv-y="1000"  />

      
      <glyph glyph-name="uni010D" unicode="&#x010D;" d="M310-15Q182-15 111 55.50Q40 126 40 250Q40 374 111 444.50Q182 515 310 515Q402 515 448.50 483Q495 451 495 405Q495 371 474.50 350.50Q454 330 420 330Q406 330 392 332L380 335L380 485L366 490Q351 495 330 495Q273 495 241.50 441Q210 387 210 250Q210 117 241.50 63.50Q273 10 330 10Q369 10 402.50 28.50Q436 47 455.50 77.50Q475 108 475 140L500 140Q500 100 476 64Q452 28 409 6.50Q366-15 310-15M170 715L205 715L315 645L425 715L460 715L315 550L170 715Z"  horiz-adv-x="530" vert-adv-y="1000"  />

      
      <glyph glyph-name="uni010E" unicode="&#x010E;" d="M50 15L110 30L110 670L50 685L50 700L305 700Q484 700 579.50 608Q675 516 675 350Q675 184 579.50 92Q484 0 305 0L50 0L50 15M305 25Q398 25 449 100.50Q500 176 500 350Q500 524 449 599.50Q398 675 305 675L275 675L275 25L305 25M213 915L248 915L358 845L468 915L503 915L358 750L213 915Z"  horiz-adv-x="715" vert-adv-y="1000"  />

      
      <glyph glyph-name="uni010F" unicode="&#x010F;" d="M245-15Q186-15 140 15.50Q94 46 67 105.50Q40 165 40 250Q40 378 99.50 446.50Q159 515 260 515Q308 515 344 495Q359 488 375 475L375 670L315 685L315 700L445 700Q535 700 535 610L535 30L595 15L595 0L505 0Q445 0 412 37Q398 52 390 75Q377 50 357 30Q312-15 245-15M285 20Q322 20 352 60Q363 75 375 100L375 445Q364 456 352 465Q325 485 300 485Q257 485 233.50 435Q210 385 210 250Q210 121 231.50 70.50Q253 20 285 20M587 515Q608 522 629 538Q672 570 682 625L669 617Q656 610 637 610Q607 610 584.50 632.50Q562 655 562 685Q562 715 584.50 737.50Q607 760 637 760Q672 760 694.50 735.50Q717 711 717 670Q717 578 657 526Q631 502 597 490L587 515Z"  horiz-adv-x="697" vert-adv-y="1000"  />

      
      <glyph glyph-name="uni0110" unicode="&#x0110;" d="M55 15L115 30L115 340L50 340L50 370L115 370L115 670L55 685L55 700L310 700Q489 700 584.50 608Q680 516 680 350Q680 184 584.50 92Q489 0 310 0L55 0L55 15M310 25Q403 25 454 100.50Q505 176 505 350Q505 524 454 599.50Q403 675 310 675L280 675L280 370L400 370L400 340L280 340L280 25L310 25Z"  horiz-adv-x="720" vert-adv-y="1000"  />

      
      <glyph glyph-name="uni0111" unicode="&#x0111;" d="M245-15Q187-15 140.50 15Q94 45 67 102.50Q40 160 40 240Q40 361 100 428Q160 495 260 495Q308 495 344 475Q359 468 375 455L375 560L250 560L250 590L375 590L375 670L315 685L315 700L445 700Q535 700 535 610L535 590L600 590L600 560L535 560L535 30L595 15L595 0L505 0Q445 0 412 37Q398 52 390 75Q377 50 357 30Q312-15 245-15M285 20Q322 20 352 60Q363 75 375 100L375 425Q374 425 354 444.50Q334 464 300 465Q257 465 233.50 417Q210 369 210 240Q210 118 231.50 69Q253 20 285 20Z"  horiz-adv-x="625" vert-adv-y="1000"  />

      
      <glyph glyph-name="uni0112" unicode="&#x0112;" d="M50 15L110 30L110 670L50 685L50 700L585 700L585 520L555 520Q536 535 522 558Q490 612 490 675L275 675L275 360L390 360Q397 398 416 431Q424 446 435 460L465 460L465 235L435 235Q424 249 416 264Q397 297 390 335L275 335L275 25L510 25Q510 88 542 142Q556 165 575 180L605 180L605 0L50 0L50 15M233 855L233 900L493 900L493 855L233 855Z"  horiz-adv-x="645" vert-adv-y="1000"  />

      
      <glyph glyph-name="uni0113" unicode="&#x0113;" d="M310-15Q182-15 111 55.50Q40 126 40 250Q40 331 71 391Q102 451 157.50 483Q213 515 285 515Q357 515 411.50 488Q466 461 495.50 415.50Q525 370 525 315Q525 290 520 272L515 255Q472 246 422 240Q317 225 210 225Q210 109 242 59.50Q274 10 330 10Q369 10 402.50 28.50Q436 47 455.50 77.50Q475 108 475 140L500 140Q500 100 476 64Q452 28 409 6.50Q366-15 310-15M210 250Q274 250 314 255Q331 256 350 260Q351 265 355 282Q360 307 360 335Q360 418 338 456.50Q316 495 285 495Q210 495 210 250M150 655L150 700L410 700L410 655L150 655Z"  horiz-adv-x="560" vert-adv-y="1000"  />

      
      <glyph glyph-name="uni0114" unicode="&#x0114;" d="M50 15L110 30L110 670L50 685L50 700L585 700L585 520L555 520Q536 535 522 558Q490 612 490 675L275 675L275 360L390 360Q397 398 416 431Q424 446 435 460L465 460L465 235L435 235Q424 249 416 264Q397 297 390 335L275 335L275 25L510 25Q510 88 542 142Q556 165 575 180L605 180L605 0L50 0L50 15M363 750Q286 750 249.50 774Q213 798 213 835Q213 861 230 878Q247 895 273 895Q275 895 296 892L308 890L308 780Q309 780 322.50 775Q336 770 363 770Q390 770 403.50 775Q417 780 418 780L418 890L430 892Q451 895 453 895Q479 895 496 878Q513 861 513 835Q513 798 476.50 774Q440 750 363 750Z"  horiz-adv-x="645" vert-adv-y="1000"  />

      
      <glyph glyph-name="uni0115" unicode="&#x0115;" d="M310-15Q182-15 111 55.50Q40 126 40 250Q40 331 71 391Q102 451 157.50 483Q213 515 285 515Q357 515 411.50 488Q466 461 495.50 415.50Q525 370 525 315Q525 290 520 272L515 255Q472 246 422 240Q317 225 210 225Q210 109 242 59.50Q274 10 330 10Q369 10 402.50 28.50Q436 47 455.50 77.50Q475 108 475 140L500 140Q500 100 476 64Q452 28 409 6.50Q366-15 310-15M210 250Q274 250 314 255Q331 256 350 260Q351 265 355 282Q360 307 360 335Q360 418 338 456.50Q316 495 285 495Q210 495 210 250M280 550Q203 550 166.50 574Q130 598 130 635Q130 661 147 678Q164 695 190 695Q192 695 213 692L225 690L225 580Q226 580 239.50 575Q253 570 280 570Q307 570 320.50 575Q334 580 335 580L335 690L347 692Q368 695 370 695Q396 695 413 678Q430 661 430 635Q430 598 393.50 574Q357 550 280 550Z"  horiz-adv-x="560" vert-adv-y="1000"  />

      
      </font>
</defs>
</svg>
